<svg height="1188" viewBox="0 0 1831 1188" width="1831" xmlns="http://www.w3.org/2000/svg" xmlns:xlink="http://www.w3.org/1999/xlink"><linearGradient id="a" x1="0%" x2="100%" y1="49.362%" y2="50.638%"><stop offset="0" stop-color="#f9f9f9"/><stop offset="1" stop-color="#fdfdfd"/></linearGradient><linearGradient id="b"><stop offset="0" stop-color="#fcfcfc"/><stop offset="1" stop-color="#fff"/></linearGradient><linearGradient id="c" x1="0%" x2="100%" xlink:href="#b" y1="47.469%" y2="52.074%"/><linearGradient id="d" x1="0%" x2="100%" y1="49.161%" y2="50.501%"><stop offset="0" stop-color="#fdfdfd"/><stop offset="1" stop-color="#f6f6f6"/></linearGradient><linearGradient id="e" x1="0%" x2="100%" xlink:href="#b" y1="45.886%" y2="53.371%"/><linearGradient id="f" x1="0%" x2="100%" y1="52.258%" y2="47.742%"><stop offset="0" stop-color="#f9f9f9"/><stop offset="1" stop-color="#fff"/></linearGradient><linearGradient id="g" x1="0%" x2="100%" y1="47.811%" y2="52.189%"><stop offset="0" stop-color="#f8f8f8"/><stop offset="1" stop-color="#fbfbfb"/></linearGradient><filter id="h" height="167.5%" width="167.5%" x="-48.8%" y="-18.8%"><feMorphology in="SourceAlpha" operator="dilate" radius="3" result="shadowSpreadOuter1"/><feOffset dx="-24" dy="24" in="shadowSpreadOuter1" result="shadowOffsetOuter1"/><feComposite in="shadowOffsetOuter1" in2="SourceAlpha" operator="out" result="shadowOffsetOuter1"/><feColorMatrix in="shadowOffsetOuter1" values="0 0 0 0 0.701960784   0 0 0 0 0.28627451   0 0 0 0 0.898039216  0 0 0 0.12 0"/></filter><filter id="i" height="167.5%" width="167.5%" x="-48.8%" y="-18.8%"><feMorphology in="SourceAlpha" operator="dilate" radius="3" result="shadowSpreadOuter1"/><feOffset dx="-24" dy="24" in="shadowSpreadOuter1" result="shadowOffsetOuter1"/><feComposite in="shadowOffsetOuter1" in2="SourceAlpha" operator="out" result="shadowOffsetOuter1"/><feColorMatrix in="shadowOffsetOuter1" values="0 0 0 0 0.392156863   0 0 0 0 0.866666667   0 0 0 0 0.0901960784  0 0 0 0.12 0"/></filter><filter id="j" height="167.5%" width="167.5%" x="-48.8%" y="-18.8%"><feMorphology in="SourceAlpha" operator="dilate" radius="3" result="shadowSpreadOuter1"/><feOffset dx="-24" dy="24" in="shadowSpreadOuter1" result="shadowOffsetOuter1"/><feComposite in="shadowOffsetOuter1" in2="SourceAlpha" operator="out" result="shadowOffsetOuter1"/><feColorMatrix in="shadowOffsetOuter1" values="0 0 0 0 0   0 0 0 0 0.784313725   0 0 0 0 0.325490196  0 0 0 0.08 0"/></filter><filter id="k" height="167.5%" width="167.5%" x="-48.8%" y="-18.8%"><feMorphology in="SourceAlpha" operator="dilate" radius="3" result="shadowSpreadOuter1"/><feOffset dx="-24" dy="24" in="shadowSpreadOuter1" result="shadowOffsetOuter1"/><feComposite in="shadowOffsetOuter1" in2="SourceAlpha" operator="out" result="shadowOffsetOuter1"/><feColorMatrix in="shadowOffsetOuter1" values="0 0 0 0 0.137254902   0 0 0 0 0.00392156863   0 0 0 0 0.219607843  0 0 0 0.08 0"/></filter><filter id="l" height="167.5%" width="167.5%" x="-48.8%" y="-18.8%"><feMorphology in="SourceAlpha" operator="dilate" radius="3" result="shadowSpreadOuter1"/><feOffset dx="-24" dy="24" in="shadowSpreadOuter1" result="shadowOffsetOuter1"/><feComposite in="shadowOffsetOuter1" in2="SourceAlpha" operator="out" result="shadowOffsetOuter1"/><feColorMatrix in="shadowOffsetOuter1" values="0 0 0 0 0.466666667   0 0 0 0 0.466666667   0 0 0 0 0.466666667  0 0 0 0.08 0"/></filter><filter id="m" height="167.5%" width="167.5%" x="-48.8%" y="-18.8%"><feMorphology in="SourceAlpha" operator="dilate" radius="3" result="shadowSpreadOuter1"/><feOffset dx="-24" dy="24" in="shadowSpreadOuter1" result="shadowOffsetOuter1"/><feComposite in="shadowOffsetOuter1" in2="SourceAlpha" operator="out" result="shadowOffsetOuter1"/><feColorMatrix in="shadowOffsetOuter1" values="0 0 0 0 0.466666667   0 0 0 0 0.466666667   0 0 0 0 0.466666667  0 0 0 0.08 0"/></filter><filter id="n" height="167.5%" width="167.5%" x="-48.8%" y="-18.8%"><feMorphology in="SourceAlpha" operator="dilate" radius="3" result="shadowSpreadOuter1"/><feOffset dx="-24" dy="24" in="shadowSpreadOuter1" result="shadowOffsetOuter1"/><feComposite in="shadowOffsetOuter1" in2="SourceAlpha" operator="out" result="shadowOffsetOuter1"/><feColorMatrix in="shadowOffsetOuter1" values="0 0 0 0 1   0 0 0 0 0.250980392   0 0 0 0 0.505882353  0 0 0 0.12 0"/></filter><filter id="o" height="167.5%" width="167.5%" x="-48.8%" y="-18.8%"><feMorphology in="SourceAlpha" operator="dilate" radius="3" result="shadowSpreadOuter1"/><feOffset dx="-24" dy="24" in="shadowSpreadOuter1" result="shadowOffsetOuter1"/><feComposite in="shadowOffsetOuter1" in2="SourceAlpha" operator="out" result="shadowOffsetOuter1"/><feColorMatrix in="shadowOffsetOuter1" values="0 0 0 0 0.466666667   0 0 0 0 0.466666667   0 0 0 0 0.466666667  0 0 0 0.08 0"/></filter><filter id="p" height="167.5%" width="167.5%" x="-48.8%" y="-18.8%"><feMorphology in="SourceAlpha" operator="dilate" radius="3" result="shadowSpreadOuter1"/><feOffset dx="-24" dy="24" in="shadowSpreadOuter1" result="shadowOffsetOuter1"/><feComposite in="shadowOffsetOuter1" in2="SourceAlpha" operator="out" result="shadowOffsetOuter1"/><feColorMatrix in="shadowOffsetOuter1" values="0 0 0 0 0.466666667   0 0 0 0 0.466666667   0 0 0 0 0.466666667  0 0 0 0.08 0"/></filter><filter id="q" height="167.5%" width="167.5%" x="-48.8%" y="-18.8%"><feMorphology in="SourceAlpha" operator="dilate" radius="3" result="shadowSpreadOuter1"/><feOffset dx="-24" dy="24" in="shadowSpreadOuter1" result="shadowOffsetOuter1"/><feComposite in="shadowOffsetOuter1" in2="SourceAlpha" operator="out" result="shadowOffsetOuter1"/><feColorMatrix in="shadowOffsetOuter1" values="0 0 0 0 0.466666667   0 0 0 0 0.466666667   0 0 0 0 0.466666667  0 0 0 0.08 0"/></filter><filter id="r" height="167.5%" width="167.5%" x="-48.8%" y="-18.8%"><feMorphology in="SourceAlpha" operator="dilate" radius="3" result="shadowSpreadOuter1"/><feOffset dx="-24" dy="24" in="shadowSpreadOuter1" result="shadowOffsetOuter1"/><feComposite in="shadowOffsetOuter1" in2="SourceAlpha" operator="out" result="shadowOffsetOuter1"/><feColorMatrix in="shadowOffsetOuter1" values="0 0 0 0 0.466666667   0 0 0 0 0.466666667   0 0 0 0 0.466666667  0 0 0 0.08 0"/></filter><filter id="s" height="167.5%" width="167.5%" x="-48.8%" y="-18.8%"><feMorphology in="SourceAlpha" operator="dilate" radius="3" result="shadowSpreadOuter1"/><feOffset dx="-24" dy="24" in="shadowSpreadOuter1" result="shadowOffsetOuter1"/><feComposite in="shadowOffsetOuter1" in2="SourceAlpha" operator="out" result="shadowOffsetOuter1"/><feColorMatrix in="shadowOffsetOuter1" values="0 0 0 0 0.466666667   0 0 0 0 0.466666667   0 0 0 0 0.466666667  0 0 0 0.08 0"/></filter><filter id="t" height="167.5%" width="167.5%" x="-48.8%" y="-18.8%"><feMorphology in="SourceAlpha" operator="dilate" radius="3" result="shadowSpreadOuter1"/><feOffset dx="-24" dy="24" in="shadowSpreadOuter1" result="shadowOffsetOuter1"/><feComposite in="shadowOffsetOuter1" in2="SourceAlpha" operator="out" result="shadowOffsetOuter1"/><feColorMatrix in="shadowOffsetOuter1" values="0 0 0 0 1   0 0 0 0 0.768627451   0 0 0 0 0.219607843  0 0 0 0.12 0"/></filter><filter id="u" height="167.5%" width="167.5%" x="-48.8%" y="-18.8%"><feMorphology in="SourceAlpha" operator="dilate" radius="3" result="shadowSpreadOuter1"/><feOffset dx="-24" dy="24" in="shadowSpreadOuter1" result="shadowOffsetOuter1"/><feComposite in="shadowOffsetOuter1" in2="SourceAlpha" operator="out" result="shadowOffsetOuter1"/><feColorMatrix in="shadowOffsetOuter1" values="0 0 0 0 0.466666667   0 0 0 0 0.466666667   0 0 0 0 0.466666667  0 0 0 0.08 0"/></filter><filter id="v" height="167.5%" width="167.5%" x="-48.8%" y="-18.8%"><feMorphology in="SourceAlpha" operator="dilate" radius="3" result="shadowSpreadOuter1"/><feOffset dx="-24" dy="24" in="shadowSpreadOuter1" result="shadowOffsetOuter1"/><feComposite in="shadowOffsetOuter1" in2="SourceAlpha" operator="out" result="shadowOffsetOuter1"/><feColorMatrix in="shadowOffsetOuter1" values="0 0 0 0 0.466666667   0 0 0 0 0.466666667   0 0 0 0 0.466666667  0 0 0 0.08 0"/></filter><filter id="w" height="167.5%" width="167.5%" x="-48.8%" y="-18.8%"><feMorphology in="SourceAlpha" operator="dilate" radius="3" result="shadowSpreadOuter1"/><feOffset dx="-24" dy="24" in="shadowSpreadOuter1" result="shadowOffsetOuter1"/><feComposite in="shadowOffsetOuter1" in2="SourceAlpha" operator="out" result="shadowOffsetOuter1"/><feColorMatrix in="shadowOffsetOuter1" values="0 0 0 0 0.466666667   0 0 0 0 0.466666667   0 0 0 0 0.466666667  0 0 0 0.08 0"/></filter><g fill="none" fill-rule="evenodd" transform="translate(0 4)"><path d="m60.7771409 812.449039 996.8694191-.001312c35.06525-.000046 63.4913 28.425923 63.49134 63.491179v.000084c0 35.065315-28.42603 63.491383-63.49134 63.491429l-996.8694191.001312c-35.065256.000046-63.49129984-28.425923-63.49134597-63.491179 0-.000028 0-.000056 0-.000084 0-35.065315 28.42603037-63.491383 63.49134597-63.491429z" fill="url(#a)" transform="matrix(.96592583 -.25881905 -.25881905 -.96592583 245.764578 1967.767303)"/><path d="m1227.79311 599.112206h247.96733c19.87966 0 35.9953 16.115647 35.9953 35.995304 0 19.879658-16.11564 35.995304-35.9953 35.995304h-247.96733c-19.87966 0-35.99531-16.115646-35.99531-35.995304 0-19.879657 16.11565-35.995304 35.99531-35.995304z" fill="url(#c)" transform="matrix(.96592583 -.25881905 -.25881905 -.96592583 210.438587 1699.439764)"/><path d="m90.281189 357.526678 578.924153-.000761c19.879515-.000026 35.995068 16.115484 35.995094 35.994999v.000047c0 19.879549-16.115545 35.995115-35.995094 35.995141l-578.924153.000762c-19.8795152.000026-35.9950676-16.115484-35.9950938-35.994999 0-.000016 0-.000032 0-.000048 0-19.879549 16.1155448-35.995115 35.9950938-35.995141z" fill="url(#d)" transform="matrix(.96592583 -.25881905 -.25881905 -.96592583 114.790269 972.918658)"/><path d="m1519.5276 31.2506716h178.97651c19.87964 0 35.99526 16.1156263 35.99526 35.9952588 0 19.8796326-16.11562 35.9952586-35.99526 35.9952586h-178.97651c-19.87963 0-35.99526-16.115626-35.99526-35.9952586 0-19.8796325 16.11563-35.9952588 35.99526-35.9952588z" fill="url(#e)" transform="matrix(.96592583 -.25881905 -.25881905 -.96592583 72.230433 649.644612)"/><path d="m655.978956 315.032148h955.873984c71.23547 0 128.98322 57.747754 128.98322 128.983218s-57.74775 128.983218-128.98322 128.983218h-955.873984c-71.235465 0-128.983218-57.747754-128.983218-128.983218s57.747753-128.983218 128.983218-128.983218z" fill="url(#f)" transform="matrix(.96592583 -.25881905 .25881905 .96592583 -76.282288 409.608501)"/><path d="m814.854089 83.4126212h479.936721c35.06552 0 63.49174 28.4262228 63.49174 63.4917448 0 35.065523-28.42622 63.491746-63.49174 63.491746h-479.936721c-35.065523 0-63.491745-28.426223-63.491745-63.491746 0-35.065522 28.426222-63.4917448 63.491745-63.4917448z" fill="url(#g)" transform="matrix(.96592583 -.25881905 -.25881905 -.96592583 73.963855 662.811254)"/><g transform="matrix(.96592583 -.25881905 .25881905 .96592583 1067.7474391863 519.4877906495)"><rect fill="#000" filter="url(#h)" height="80" rx="40" width="80"/><rect fill="#b349e5" height="83" rx="40" stroke="#fefefe" stroke-width="3" width="83" x="-1.5" y="-1.5"/><path d="m13.5 3c1.7239 0 3.3772.68482 4.5962 1.9038 1.21898 1.219 1.9038 2.8723 1.9038 4.5962s-.68482 3.3772-1.9038 4.5962c-.8388844.8388706-1.8834462 1.4247717-3.0151527 1.708602.6407413 5.1833904 5.0603802 9.195198 10.4189527 9.195198l6.6753156.0003954c.2757762-1.1630308.8695025-2.2376135 1.7284844-3.0965954 1.219-1.219 2.8722-1.9038 4.5962-1.9038s3.3772.6848 4.5962 1.9038 1.9038 2.8722 1.9038 4.5962-.6848 3.3772-1.9038 4.5962-2.8722 1.9038-4.5962 1.9038-3.3772-.6848-4.5962-1.9038c-.8587338-.8587338-1.4523652-1.9329438-1.7282454-3.0955876l-6.6755546-.0006124c-3.58042 0-7.0142-1.4224-9.54594-3.954-.3381391-.3381472-.6564882-.6923841-.9543016-1.0609112l.0002416 9.0149112c0 .0579553-.0033545.1155668-.0099559.1725741 1.1657529.2747708 2.2444617.8695317 3.1061559 1.7312259 1.21898 1.219 1.9038 2.8722 1.9038 4.5962s-.68482 3.3772-1.9038 4.5962c-1.219 1.219-2.8723 1.9038-4.5962 1.9038s-3.3772-.6848-4.5962-1.9038c-1.21898-1.219-1.9038-2.8722-1.9038-4.5962s.68482-3.3772 1.9038-4.5962c.86144951-.8614495 1.9397903-1.4561173 3.1066647-1.7308532-.0071163-.05683-.0104647-.1144997-.0104647-.1729468v-16c0-.0579019.003348-.1154589.0099366-.1724121-1.1657336-.2749411-2.24444236-.8697078-3.1061366-1.7313879-1.21898-1.219-1.9038-2.8723-1.9038-4.5962s.68482-3.3772 1.9038-4.5962c1.219-1.21898 2.8723-1.9038 4.5962-1.9038zm0 32c-.92826 0-1.8185.3688-2.47488 1.0252s-1.02512 1.5466-1.02512 2.4748.36874 1.8184 1.02512 2.4748 1.54662 1.0252 2.47488 1.0252 1.8185-.3688 2.47488-1.0252 1.02512-1.5466 1.02512-2.4748-.36874-1.8184-1.02512-2.4748-1.54662-1.0252-2.47488-1.0252zm25-12c-.9282 0-1.8184.3688-2.4748 1.0252s-1.0252 1.5466-1.0252 2.4748.3688 1.8184 1.0252 2.4748 1.5466 1.0252 2.4748 1.0252 1.8184-.3688 2.4748-1.0252 1.0252-1.5466 1.0252-2.4748-.3688-1.8184-1.0252-2.4748-1.5466-1.0252-2.4748-1.0252zm-25-17c-.45962 0-.91476.09054-1.3394.26642-.42464.1759-.81046.4337-1.13548.7587-.325.32502-.5828.71084-.7587 1.13548s-.26642.87978-.26642 1.3394.09052.91476.26642 1.3394.4337.81046.7587 1.13548c.32502.325.71084.5828 1.13548.7587s.87978.26642 1.3394.26642c.92826 0 1.8185-.36874 2.47488-1.02512s1.02512-1.54662 1.02512-2.47488-.36874-1.8185-1.02512-2.47488-1.54662-1.02512-2.47488-1.02512z" fill="#fff" fill-rule="nonzero" transform="translate(16 16)"/></g><g transform="matrix(.96592583 -.25881905 .25881905 .96592583 1330.7687490208 448.60457848306)"><rect fill="#000" filter="url(#i)" height="80" rx="40" width="80"/><rect fill="#64dd17" height="83" rx="40" stroke="#fefefe" stroke-width="3" width="83" x="-1.5" y="-1.5"/><path d="m9.49994628 3c1.72398572 0 3.37797212.68481434 4.59596202 1.90378427 1.2199899 1.21898992 1.9039843 2.87227626 1.9039843 4.59616201 0 1.72388572-.6839944 3.37717212-1.9039843 4.59616202-.8609589.8616517-1.9397693 1.4564054-3.1071623 1.731049.0077616.0559231.0111879.1141527.0111879.1727353v15.9998677c0 .0586408-.0034335.1169294-.0101914.1745964 1.1663965.2727742 2.2452069.8675221 3.1061658 1.7291879 1.2199899 1.2189899 1.9039843 2.8721763 1.9039843 4.596162 0 1.7239858-.6839944 3.3771721-1.9039843 4.596162-1.2179899 1.21899-2.8719763 1.9037843-4.59596202 1.9037843-1.72398575 0-3.37797208-.6847943-4.59596202-1.9037843-1.21998991-1.2189899-1.90398426-2.8721762-1.90398426-4.596162 0-1.7239857.68399435-3.3771721 1.90398426-4.596162.86095895-.8616658 1.93976931-1.4564137 3.10716229-1.7310526-.00775443-.0558023-.01118787-.1140909-.01118787-.1727317v-15.9998677c0-.0585826.00342629-.1168122.01017031-.1744206-1.16637542-.2729583-2.24518578-.867712-3.10614473-1.7293637-1.21998991-1.2189899-1.90398426-2.8722763-1.90398426-4.59616202 0-1.72388575.68399435-3.37717209 1.90398426-4.59616201 1.21798994-1.21896993 2.87197627-1.90378427 4.59596202-1.90378427zm16.24986572.00131999c.3979967 0 .7779936.1577787 1.0599912.43867637.2799977.28125768.4379964.66249453.4379964 1.05999124 0 .39749672-.1579987.77873357-.4379964 1.05999124l-2.4399798 2.43997984h8.1299328c1.9899836 0 3.8959678.79017347 5.3039562 2.19668182 1.4059883 1.4065084 2.1959818 3.3141526 2.1959818 5.3032562l.0001372 16.6752703c1.1630445.2758142 2.2376631.8694988 3.0958372 1.7283776 1.2199899 1.2189899 1.9039843 2.8721763 1.9039843 4.596162 0 1.7239858-.6839944 3.3771721-1.9039843 4.596162-1.2179899 1.21899-2.8719762 1.9037843-4.595962 1.9037843-1.7239857 0-3.3779721-.6847943-4.595962-1.9037843-1.2199899-1.2189899-1.9039843-2.8721762-1.9039843-4.596162 0-1.7239857.6839944-3.3771721 1.9039843-4.596162.8580062-.8587107 1.9323722-1.4523311 3.0951545-1.7282157l.0008199-16.6754322c0-1.1934701-.4739961-2.3380407-1.3179891-3.1819537s-1.9879836-1.3180091-3.1819737-1.3180091h-8.1279328l2.4399798 2.4399798c.2739977.2830377.4239965.6619945.4199965 1.0552913-.0039999.3932967-.1619986.7694336-.4399963 1.0474113s-.6539946.4355564-1.0479914.4387964c-.3919967.00322-.7719936-.1481388-1.0539913-.4215165l-4.9999586-4.9999587c-.2799977-.2812577-.4379964-.6624945-.4379964-1.05999122 0-.39749671.1579987-.77873356.4379964-1.05999124l4.9999586-4.99995868c.2819977-.28089767.6619946-.43867637 1.0599913-.43867637zm-16.24986572 31.99841551c-.92799233 0-1.81798497.368797-2.47397955 1.0251916-.65799456.6563945-1.02599152 1.5465872-1.02599152 2.4747795s.36799696 1.818385 1.02599152 2.4747796c.65599458.6563945 1.54598722 1.0251915 2.47397955 1.0251915.92799232 0 1.81798502-.368797 2.47397952-1.0251915.6579946-.6563946 1.0259916-1.5465873 1.0259916-2.4747796s-.367997-1.818385-1.0259916-2.4747795c-.6559945-.6563946-1.5459872-1.0251916-2.47397952-1.0251916zm28.99976032 0c-.9279923 0-1.817985.368797-2.4739795 1.0251916-.6579946.6563945-1.0259916 1.5465872-1.0259916 2.4747795s.367997 1.818385 1.0259916 2.4747796c.6559945.6563945 1.5459872 1.0251915 2.4739795 1.0251915s1.817985-.368797 2.4739796-1.0251915c.6579945-.6563946 1.0259915-1.5465873 1.0259915-2.4747796s-.367997-1.818385-1.0259915-2.4747795c-.6559946-.6563946-1.5459873-1.0251916-2.4739796-1.0251916zm-28.99976032-28.99976029c-.4599962 0-.91399244.09053925-1.33998892.2664178-.4239965.17589854-.80999331.43369641-1.13399063.75869372-.32599731.32501732-.58399518.71083413-.75999372 1.13547062-.17599855.42463649-.2659978.87977273-.2659978 1.33938893s.08999925.91475242.2659978 1.33938892c.17599854.4246365.43399641.8104533.75999372 1.1354706.32399732.3249973.70999413.5827952 1.13399063.7586938.42599648.1758985.87999272.2664178 1.33998892.2664178.92799232 0 1.81798502-.368737 2.47397952-1.0251116.6579946-.6563745 1.0259916-1.5466072 1.0259916-2.47485952 0-.92825233-.367997-1.81848497-1.0259916-2.47485955-.6559945-.65637457-1.5459872-1.02511152-2.47397952-1.02511152z" fill="#fff" fill-rule="nonzero" transform="translate(16 16)"/></g><g transform="matrix(.96592583 -.25881905 .25881905 .96592583 1225.8719151263 344.6031125095)"><rect fill="#000" filter="url(#j)" height="80" rx="40" width="80"/><rect fill="#00bfa5" height="83" rx="40" stroke="#fefefe" stroke-width="3" width="83" x="-1.5" y="-1.5"/><path d="m24.5 36c.1326 0 .2598.0526.3536.1464s.1464.221.1464.3536v10.02c-.0004.092-.0262.1822-.0746.2604s-.1174.1416-.1996.1832c-.082.0416-.174.0598-.2658.0524-.0916-.0074-.1796-.0398-.254-.094l-4.412-3.208c-.08544-.0622-.18836-.0956-.294-.0956s-.20856.0334-.294.0956l-4.412 3.206c-.0743.054-.16202.0866-.25358.094-.09154.0074-.18336-.0106-.2654-.0518-.08202-.0414-.15108-.1046-.1996-.1826s-.0746-.1678-.07542-.2596v-10.02c0-.1326.05268-.2598.14644-.3536.09378-.0938.22096-.1464.35356-.1464zm16-36c.3978 0 .7794.1580352 1.0606.43934.2814.281304.4394.662836.4394 1.06066v41c0 .3978-.158.7794-.4394 1.0606-.2812.2814-.6628.4394-1.0606.4394h-12c-.3978 0-.7794-.158-1.0606-.4394-.2814-.2812-.4394-.6628-.4394-1.0606s.158-.7794.4394-1.0606c.2812-.2814.6628-.4394 1.0606-.4394h10.5v-8h-27c-.79564 0-1.55872.316-2.12131997.8786-.5626.5626-.87868003 1.3258-.87868003 2.1214v1.5c0 1.432.86000003 2.668 2.1 3.21.3523.167.62578.4644.7625.8296.13672.365.12592.769-.03008 1.1262-.15602.3574-.445.6398-.8057.7876-.36072.148-.76482.1496-1.12671997.0046-1.15926-.506-2.14572-1.3392-2.83846-2.3974-.69274-1.0584-1.06154003-2.2958-1.06154003-3.5606v-32c0-1.4587.57946003-2.85764 1.61092003-3.889088 1.03144-1.03145 2.43037997-1.610912 3.88907997-1.610912zm-1.5 3h-27.5c-1.38 0-2.49999997 1.12-2.49999997 2.5v25.302c.882-.51 1.90799997-.802 2.99999997-.802h27z" fill="#fff" fill-rule="nonzero" transform="translate(16 16)"/></g><g transform="matrix(.96592583 -.25881905 .25881905 .96592583 1265.3733528362 206.34226304192)"><rect fill="#000" filter="url(#k)" height="80" rx="40" width="80"/><rect fill="#230138" height="83" rx="40" stroke="#fefefe" stroke-width="3" width="83" x="-1.5" y="-1.5"/><path d="m20.0591981 10.597507c.1474053-.1373249.2656095-.3029308.3476124-.4869374.082003-.18400657.1260045-.38263366.1296047-.58406086.0036001-.2014072-.0334012-.40147435-.1090039-.58826102-.0754027-.18676668-.1876067-.35645274-.3302118-.49889783-.1424051-.14244509-.3120112-.2547291-.4988179-.3301718-.1868066-.07544269-.3868138-.11250402-.588221-.10917809-.2014272.00379433-.4000743.0478759-.5840808.12985883-.1840066.08198293-.3496125.20018716-.4869374.34757242l-12.50044672 12.50044665c-.28091004.2812101-.43869568.6626237-.43869568 1.0600379 0 .3976142.15778564.7788278.43869568 1.0600379l12.50044672 12.5004467c.1373249.1474052.3029308.2656095.4869374.3476124.1840065.0820029.3826536.1260045.5840808.1296046.2014072.0036002.4014144-.0336012.588221-.1090039.1868067-.0754027.3564128-.1876067.4988179-.3302118.1426051-.1424051.2548091-.3120111.3302118-.4988178.0756027-.1868067.112604-.3868138.1090039-.588221-.0036002-.2014072-.0476017-.4000143-.1296047-.5840209-.0820029-.1840066-.2002071-.3496125-.3476124-.4870174l-9.9403352-9.9403552h22.8807976c.8534305-.0006 1.6986607.167206 2.4872889.4934176.7886282.3262117 1.5052538.8046288 2.1088754 1.4078504.6036215.6032215 1.0824386 1.3196471 1.4092503 2.1080753.3266117.7884282.4948177 1.6334584.4948177 2.4868888v9.0043218c0 .3978142.1580056.7794279.4394157 1.0606379.28121.2814101.6628237.4394157 1.0606379.4394157s.7794278-.1580056 1.0606379-.4394157c.2814101-.28121.4394157-.6628237.4394157-1.0606379v-9.0043218c0-1.2474445-.2458088-2.4826887-.7232258-3.6349298-.4774171-1.1524412-1.1772421-2.1994786-2.0596736-3.0813101-.8822316-.8820316-1.929469-1.5814566-3.0821102-2.0584736-1.1526412-.476817-2.3878853-.7221458-3.6353299-.7216258h-22.8807976z" fill="#fff" fill-rule="nonzero" transform="matrix(1 0 0 -1 16 64.539)"/></g><g transform="matrix(.96592583 -.25881905 .25881905 .96592583 1357.13611211965 309.02411285831)"><rect fill="#000" filter="url(#l)" height="80" rx="40" width="80"/><rect fill="#fafbfd" height="83" rx="40" stroke="#dadada" stroke-width="3" width="83" x="-1.5" y="-1.5"/><path d="m30.9997769 23.9961174c0 .9191924-.1809985 1.8295849-.5327956 2.6787778-.3517971.849193-.8673929 1.6209867-1.5173875 2.2709813s-1.4217882 1.1655903-2.2709812 1.5173874-1.7595855.5327956-2.6787779.5327956-1.8295849-.1809985-2.6787778-.5327956c-.849193-.3517971-1.6209867-.8673928-2.2709813-1.5173874s-1.1655903-1.4217883-1.5173874-2.2709813c-.3517971-.8491929-.5327956-1.7595854-.5327956-2.6787778 0-1.8565847.7373939-3.63697 2.050183-4.9496991 1.3127892-1.3127492 3.0931745-2.0502431 4.9497591-2.0502431 1.8565847 0 3.63697.7374939 4.9497591 2.0502431 1.3127892 1.3127291 2.0501831 3.0931144 2.0501831 4.9496991zm2.8879761-1.4999876c-.359997-2.3644805-1.5555872-4.5216426-3.3695722-6.0803498-1.813985-1.5587071-4.1265659-2.41578-6.5183461-2.41578s-4.7043611.8570729-6.5183461 2.41578c-1.813985 1.5587072-3.0095751 3.7158693-3.3695722 6.0803498h-8.6119288c-.19699837 0-.39199676.0387997-.57399525.114199-.1819985.0753994-.34739713.1857985-.48659598.3251974-.13939885.1391988-.24979794.3045974-.32519731.4865959-.07539938.1819985-.11419906.3769969-.11419906.5739953s.03879968.3919967.11419906.5739952c.07539937.1819985.18579846.3473972.32519731.486596.13919885.1393989.30459748.249798.48659598.3251973.18199849.0753994.37699688.1141991.57399525.1141991h8.6119288c.3599971 2.3643805 1.5555872 4.5215626 3.3695722 6.0803497 1.813985 1.5587872 4.1265659 2.4157801 6.5183461 2.4157801s4.7043611-.8569929 6.5183461-2.4157801c1.813985-1.5587871 3.0095752-3.7159692 3.3695722-6.0803497h8.6119288c.1969984 0 .3919968-.0387997.5739953-.1141991.1819985-.0753993.3473971-.1857984.486596-.3251973.1393988-.1391988.2497979-.3045975.3251973-.486596.0753993-.1819985.114199-.3769968.114199-.5739952s-.0387997-.3919968-.114199-.5739953c-.0753994-.1819985-.1857985-.3473971-.3251973-.4865959-.1391989-.1393989-.3045975-.249798-.486596-.3251974-.1819985-.0753993-.3769969-.114199-.5739953-.114199z" fill="#230138" transform="translate(16 16)"/></g><g transform="matrix(.96592583 -.25881905 .25881905 .96592583 1161.0531631208 626.59508522306)"><rect fill="#000" filter="url(#m)" height="80" rx="40" width="80"/><rect fill="#fafbfd" height="83" rx="40" stroke="#dadada" stroke-width="3" width="83" x="-1.5" y="-1.5"/><path d="m24.424019 0c.2799977 0 .5545954.07799974.7923935.22579852.237798.14779878.4295964.35919703.5535954.61019495l6.1159494 12.39389753 13.677887 1.9879836c.2767977.0399997.5365956.1579987.7503938.3379972s.3727969.4179966.4589962.6839944c.0863993.2659978.0965992.5499954.0295998.8219932-.0671995.2719977-.2087983.5179957-.4089967.7139941l-9.8959182 9.6459203 2.3359807 13.6218874c.0473996.2759977.0167999.5599954-.0885993.8179932-.1053991.2599979-.2811976.483996-.5075958.6499946-.2263981.1639987-.4943959.2619979-.7735936.2819977-.2791977.0199999-.5583954-.0379997-.8061933-.1679986l-12.2338989-6.4319468-12.2338989 6.4319468c-.2475979.1299989-.5265956.1879985-.8055933.1679986-.2789977-.0199998-.5467955-.117999-.7729936-.2819977-.2263982-.1639986-.4021967-.3879967-.5077958-.6479946-.10559918-.2579979-.13659892-.5419955-.0895993-.8179932l2.3359807-13.6238874-9.89591823-9.6459203c-.20079834-.1959984-.34299716-.4439964-.41019661-.7159941-.06739944-.2719978-.05719953-.5559954.02939976-.8219932.08659928-.2679978.24619796-.5039958.46059619-.6839944.21419823-.1819985.47479608-.2979975.75219378-.3379972l13.67588701-1.9859836 6.1179494-12.39389753c.123799-.25079792.3151974-.46199618.5527954-.60959496.2373981-.14779878.5115958-.22639851.7911935-.22639851zm0 4.88995997-5.1199577 10.37391423c-.1077991.2179982-.2669978.4059967-.4637962.5499955-.1967983.1419988-.4253964.235998-.6661944.2699978l-11.44990542 1.6639862 8.28593152 8.0759333c.1739986.1699986.3039975.3799968.3787969.6099949.0749994.2319981.0925992.4779961.0511995.7179941l-1.9559838 11.4039057 10.2419154-5.3839555c.2151982-.113999.4547962-.1719985.6979942-.1719985s.482796.0579995.6979942.1719985l10.2399154 5.3839555-1.9539838-11.4039057c-.0413997-.239998-.0237998-.485996.0511995-.7179941.0747994-.2299981.2047983-.4399963.3787969-.6099949l8.2859315-8.0759333-11.4499054-1.6619863c-.240798-.0339997-.4693961-.1279989-.6661944-.2699977-.1967984-.1439988-.3559971-.3319973-.4637962-.5499955l-5.1199577-10.37791421z" fill="#230138" transform="translate(16 16)"/></g><g transform="matrix(.96592583 -.25881905 .25881905 .96592583 1292.4190760008 591.39569442306)"><rect fill="#000" filter="url(#n)" height="80" rx="40" width="80"/><rect fill="#ff4081" height="83" rx="40" stroke="#fefefe" stroke-width="3" width="83" x="-1.5" y="-1.5"/><path d="m13.4719052 7.99997521c-4.15796565 0-8.47192999 3.75996889-8.47192999 9.02792539 0 6.2139486 4.64796158 11.9199015 9.72191969 16.2398658 2.8379765 2.3979802 5.8959512 4.5239626 9.1319245 6.3499475l.1459988.0819993.1459988-.0799993c.5419955-.3059975 1.3219891-.7599937 2.2599813-1.3479889 1.8799845-1.1759903 4.3799638-2.8819762 6.8719432-5.0039586 5.0739581-4.3199643 9.7219197-10.0259172 9.7219197-16.2398658 0-5.2679565-4.3139644-9.02792539-8.47193-9.02792539-4.2119652 0-7.6019372 2.77797699-9.1059248 7.28593979-.0999991.2979975-.2919976.5559954-.5459955.7399939-.2559978.1839985-.5619953.2819976-.8759927.2819976s-.6199949-.0979991-.8759928-.2819976c-.2539979-.1839985-.4459963-.4419964-.5459955-.7399939-1.5039875-4.5079628-4.8959595-7.28593979-9.1059247-7.28593979zm10.5279212 33.40572389.6859861 1.333989c-.2119982.1099991-.4479963.1659986-.6859861.1659986-.2380062 0-.4740043-.0559995-.6860025-.1659986zm-21.9998264-24.3797985c0-6.9199428 5.65795324-12.0259006 11.4719052-12.0259006 4.5879621 0 8.2899315 2.45197974 10.527913 6.2099487 2.2399815-3.75796896 5.9399509-6.2099487 10.527913-6.2099487 5.8119519 0 11.4719052 5.1039578 11.4719052 12.0279006 0 7.6359369-5.6019537 14.1198833-10.777911 18.5238469-3.2359732 2.7339774-6.7439442 5.1299576-10.4659135 7.1519409l-.0499996.0259998-.0139998.0059999-.004.002-.6879943-1.331989-.6859943 1.333989-.006-.004-.0139999-.0059999-.0499996-.0259998c-1.1019909-.5939951-2.1839819-1.2239899-3.2439732-1.8879844-2.5299791-1.5799869-4.9439591-3.3379724-7.2219403-5.2639565-5.17795718-4.4059636-10.7779109-10.88791-10.7779109-18.5238469z" fill="#fff" fill-rule="nonzero" transform="translate(16 16)"/></g><g transform="matrix(.96592583 -.25881905 .25881905 .96592583 940.6871631006 553.79437912916)"><rect fill="#000" filter="url(#o)" height="80" rx="40" width="80"/><rect fill="#fafbfd" height="83" rx="40" stroke="#dadada" stroke-width="3" width="83" x="-1.5" y="-1.5"/><path d="m26.7497955 3.00131999c.3979967 0 .7779935.1577787 1.0599912.43867637.2799977.28125768.4379964.66249453.4379964 1.05999124 0 .39749672-.1579987.77873357-.4379964 1.05999124l-2.4399798 2.43997984h8.1299328c1.9899835 0 3.8959678.79017347 5.3039561 2.19668182 1.4059884 1.4065084 2.1959819 3.3141526 2.1959819 5.3032562l.0001371 16.6752703c1.1630445.2758142 2.2376631.8694988 3.0958373 1.7283776 1.2199899 1.2189899 1.9039843 2.8721763 1.9039843 4.596162 0 1.7239858-.6839944 3.3771721-1.9039843 4.596162-1.2179899 1.21899-2.8719763 1.9037843-4.595962 1.9037843-1.7239858 0-3.3779721-.6847943-4.595962-1.9037843-1.2199899-1.2189899-1.9039843-2.8721762-1.9039843-4.596162 0-1.7239857.6839944-3.3771721 1.9039843-4.596162.8580062-.8587107 1.9323722-1.4523311 3.0951545-1.7282157l.0008199-16.6754322c0-.5909351-.1159991-1.1761103-.3419972-1.7220658s-.5579954-1.0420314-.9759919-1.4598879c-.4179966-.4178566-.9139925-.7493338-1.459988-.9754719-.5459954-.2261382-1.1319906-.3425372-1.7219857-.3425372h-8.1279329l2.4399799 2.4399798c.2739977.2830377.4239965.6619945.4199965 1.0552913-.004.3932967-.1619987.7694336-.4399964 1.0474113s-.6539946.4355564-1.0479913.4387964c-.3919968.00322-.7719936-.1481388-1.0539913-.4215165l-4.9999587-4.9999587c-.2799976-.2812577-.4379963-.6624945-.4379963-1.05999122 0-.39749671.1579987-.77873356.4379963-1.05999124l4.9999587-4.99995868c.2819977-.28089767.6619945-.43867637 1.0599913-.43867637zm-18.24984922-.00131999c1.72398572 0 3.37797212.68481434 4.59596202 1.90378427 1.2199899 1.21898992 1.9039843 2.87227626 1.9039843 4.59616201 0 1.72388572-.6839944 3.37717212-1.9039843 4.59616202-.8582523.8589428-1.9329884 1.4526632-3.09615492 1.7284493l.0001805 16.6751986c0 1.1933901.47399612 2.3379807 1.31798912 3.1819737.843993.843793 1.9879836 1.3179891 3.1819737 1.3179891h8.1279328l-2.4399798-2.4399798c-.1439988-.1383989-.2579979-.3039975-.3359972-.486996-.0779994-.1829985-.119999-.3799969-.121999-.5791952-.002-.1989984.0379997-.3965967.111999-.5807952.0759994-.1843985.1879985-.3517971.3279973-.4925959.1419989-.1407989.3079975-.251998.493996-.3273973.1839984-.0753994.3819968-.1131991.5799952-.1113991.1999983.0018.3959967.0433996.5799952.121999.1819985.0787993.3479971.1929984.485996.3363972l4.9999586 4.9999587c.2799977.2811977.4379964.6623945.4379964 1.0599912s-.1579987.7787936-.4379964 1.0599913l-4.9999586 4.9999586c-.2819977.2809977-.6619946.4385964-1.0599913.4385964s-.7779936-.1575987-1.0599912-.4385964c-.2799977-.2811976-.4379964-.6623945-.4379964-1.0599912s.1579987-.7787936.4379964-1.0599912l2.4399798-2.4399799h-8.1299328c-1.9899836 0-3.8959678-.7901935-5.30395617-2.1965818-1.40598838-1.4065884-2.19598185-3.3141726-2.19598185-5.3033562l-.00081991-16.6754359c-1.16278231-.2758892-2.23714826-.8695154-3.09515451-1.728212-1.21998991-1.2189899-1.90398426-2.8722763-1.90398426-4.59616202 0-1.72388575.68399435-3.37717209 1.90398426-4.59616201 1.21798994-1.21896993 2.87197627-1.90378427 4.59596202-1.90378427zm30.99974382 31.9997355c-.9279923 0-1.817985.368797-2.4739796 1.0251916-.6579945.6563945-1.0259915 1.5465872-1.0259915 2.4747795s.367997 1.818385 1.0259915 2.4747796c.6559946.6563945 1.5459873 1.0251915 2.4739796 1.0251915s1.817985-.368797 2.4739795-1.0251915c.6579946-.6563946 1.0259916-1.5465873 1.0259916-2.4747796s-.367997-1.818385-1.0259916-2.4747795c-.6559945-.6563946-1.5459872-1.0251916-2.4739795-1.0251916zm-30.99974382-28.99976029c-.92799233 0-1.81798497.36873695-2.47397955 1.02511152-.65799456.65637458-1.02599152 1.54660722-1.02599152 2.47485955 0 .92825232.36799696 1.81848502 1.02599152 2.47485952.65599458.6563746 1.54598722 1.0251116 2.47397955 1.0251116.4599962 0 .91399245-.0905193 1.33998893-.2664178.42399649-.1758986.80999329-.4336965 1.13399059-.7586938.3259973-.3250173.5839952-.7108341.7599938-1.1354706.1759985-.4246365.2659978-.87977272.2659978-1.33938892s-.0899993-.91475244-.2659978-1.33938893c-.1759986-.42463649-.4339965-.8104533-.7599938-1.13547062-.3239973-.32499731-.7099941-.58279518-1.13399059-.75869372-.42599648-.17587855-.87999273-.2664178-1.33998893-.2664178z" fill="#230138" transform="translate(16 16)"/></g><g transform="matrix(.96592583 -.25881905 .25881905 .96592583 1423.7849888808 556.19630362306)"><rect fill="#000" filter="url(#p)" height="80" rx="40" width="80"/><rect fill="#fafbfd" height="83" rx="40" stroke="#dadada" stroke-width="3" width="83" x="-1.5" y="-1.5"/><path d="m40.4996983 4c.9279924 0 1.817985.36799696 2.4739796 1.02599152.6579946.65599458 1.0259915 1.54598722 1.0259915 2.47397955v32.99972723c0 .9279924-.3679969 1.817985-1.0259915 2.4739796-.6559946.6579946-1.5459872 1.0259915-2.4739796 1.0259915h-32.99972723c-1.93198403 0-3.49997107-1.567987-3.49997107-3.4999711v-32.99972723c0-.92799233.36799696-1.81798497 1.02599152-2.47397955.65599458-.65799456 1.54598722-1.02599152 2.47397955-1.02599152zm0 2.99997521h-32.99972309c-.13200304 0-.26000199.05199957-.35400121.14599879s-.14599879.22199817-.14599879.35400121v32.99972309c0 .131999.05199957.2599979.14599879.3539971s.22199817.1459988.35400121.1459988h32.99972309c.131999 0 .2599979-.0519996.3539971-.1459988s.1459988-.2219981.1459988-.3539971v-32.99972309c0-.13200304-.0519996-.26000199-.1459988-.35400121s-.2219981-.14599879-.3539971-.14599879zm-6.9999421 4.99995869c.3979967 0 .7799936.1579987 1.0599912.4399963.2819977.2799977.4399964.6619946.4399964 1.0599913v18.999843c0 .3979967-.1579987.7799935-.4399964 1.0599912-.2799976.2819977-.6619945.4399964-1.0599912.4399964s-.7799936-.1579987-1.0599912-.4399964c-.2819977-.2799977-.4399964-.6619945-.4399964-1.0599912v-18.999843c0-.3979967.1579987-.7799936.4399964-1.0599913.2799976-.2819976.6619945-.4399963 1.0599912-.4399963zm-18.999843 0c.3979967 0 .7799936.1579987 1.0599913.4399963.2819976.2799977.4399963.6619946.4399963 1.0599913v14.999876c0 .3979967-.1579987.7799936-.4399963 1.0599913-.2799977.2819976-.6619946.4399963-1.0599913.4399963s-.7799935-.1579987-1.0599912-.4399963c-.2819977-.2799977-.4399964-.6619946-.4399964-1.0599913v-14.999876c0-.3979967.1579987-.7799936.4399964-1.0599913.2799977-.2819976.6619945-.4399963 1.0599912-.4399963zm9.4999215 0c.3979967 0 .7799936.1579987 1.0599913.4399963.2819976.2799977.4399963.6619946.4399963 1.0599913v8.9999256c0 .3979967-.1579987.7799936-.4399963 1.0599912-.2799977.2819977-.6619946.4399964-1.0599913.4399964s-.7799935-.1579987-1.0599912-.4399964c-.2819977-.2799976-.4399964-.6619945-.4399964-1.0599912v-8.9999256c0-.3979967.1579987-.7799936.4399964-1.0599913.2799977-.2819976.6619945-.4399963 1.0599912-.4399963z" fill="#230138" transform="translate(16 16)"/></g><g transform="matrix(.96592583 -.25881905 .25881905 .96592583 1199.4028361408 483.80396928306)"><rect fill="#000" filter="url(#q)" height="80" rx="40" width="80"/><rect fill="#fafbfd" height="83" rx="40" stroke="#dadada" stroke-width="3" width="83" x="-1.5" y="-1.5"/><path d="m35.2497417 4.01916431c.3919968.06399947.7439939.27999768.975992.60399501.2319981.32199733.3279973.72399401.2639978 1.11599077l-1.5027315 9.25984991 7.5226817.0000736c.3979967 0 .7799936.1579987 1.0599913.4399963.2819976.2799977.4399963.6619946.4399963 1.0599913s-.1579987.7799935-.4399963 1.0599912c-.2799977.2819977-.6619946.4399964-1.0599913.4399964l-8.0086817-.0000488-1.946 11.999 9.9546817.0009496c.3482472 0 .6842444.1209677.9503789.3401261l.1096124.0998703c.2819976.2799976.4399963.6619945.4399963 1.0599912s-.1579987.7799936-.4399963 1.0599912c-.2799977.2819977-.6619946.4399964-1.0599913.4399964l-10.4406817-.0009248-1.5792189 9.7408443c-.0739994.3839968-.2939976.721994-.6139949.9459922-.3199974.2219982-.7139941.3119974-1.097991.2499979-.3859968-.0619995-.7319939-.2719977-.963992-.5839951-.2339981-.3139975-.3339972-.7059942-.2839977-1.091991l1.5011945-9.2608483h-12.962l-1.5790867 9.7408443c-.0739994.3839968-.2939976.721994-.6139949.9459922-.3199974.2219982-.7139941.3119974-1.0979909.2499979-.3859969-.0619995-.731994-.2719977-.9639921-.5839951-.233998-.3139975-.3339972-.7059942-.2839976-1.091991l1.5010622-9.2608483-7.5310124.0009248c-.39799671 0-.77999355-.1579987-1.05999124-.4399964-.28199767-.2799976-.43999636-.6619945-.43999636-1.0599912s.15799869-.7799936.43999636-1.0599912c.27999769-.2819977.66199453-.4399964 1.05999124-.4399964l8.0170124-.0009496 1.946-11.999-9.95301248.0000488c-.39799671 0-.77999355-.1579987-1.05999124-.4399964-.28199767-.2799977-.43999636-.6619945-.43999636-1.0599912s.15799869-.7799936.43999636-1.0599913c.27999769-.2819976.66199453-.4399963 1.05999124-.4399963l10.43901248-.0000736 1.5808882-9.73984594c.0639995-.39199676.2799977-.74399385.603995-.97599193.3219973-.23199809.723994-.3273973 1.1159908-.26399782.3919967.06399947.7439938.27999768.9759919.60399501.2319981.32199733.3279973.72399401.2639978 1.11599077l-1.5028637 9.25984991h12.962l1.580756-9.73984594c.0639994-.39199676.2799976-.74399385.603995-.97599193.3219973-.23199809.723994-.3273973 1.1159907-.26399782zm-3.7867417 13.97983569h-12.962l-1.946 11.999h12.962z" fill="#230138" transform="translate(16 16)"/></g><g transform="matrix(.96592583 -.25881905 .25881905 .96592583 1488.3728742937 273.34272506914)"><rect fill="#000" filter="url(#r)" height="80" rx="40" width="80"/><rect fill="#fafbfd" height="83" rx="40" stroke="#dadada" stroke-width="3" width="83" x="-1.5" y="-1.5"/><path d="m25.5998036 29.6895754c.3279973-.1479988.6979942-.1739986 1.0439913-.0719994.3459972.1019991.6439947.3239973.8379931.6279948l7.9999339 12.4778969c.2139982.3339972.2879976.7419938.2019983 1.1299906-.0839993.3879968-.3199973.727994-.6539946.9419922-.3339972.2139983-.7419938.2879977-1.1299906.2019984-.3879968-.0839993-.727994-.3199974-.9419922-.6539946l-7.1999405-11.2259073v12.4398972c0 .3979968-.1579987.7799936-.4399964 1.0599913-.2799977.2819976-.6619945.4399963-1.0599912.4399963s-.7799936-.1579987-1.0599913-.4399963c-.2819976-.2799977-.4399963-.6619945-.4399963-1.0599913v-11.2799067l-1.0199916.4639961-6.2619483 9.6119206c-.2219981.3219973-.5619953.5439955-.9439922.6179949-.3839968.0759994-.7819935-.002-1.1079908-.2159982-.3279973-.2119983-.5599954-.5459955-.6439947-.9259924-.0859993-.3819968-.0199998-.7799935.1839985-1.1139908l6.4999463-9.9779175c.1559987-.239998.3759969-.4299965.6359947-.5479955zm12.3058983-28.60316363c.5339956.11279907 1.0399914.33359724 1.4839877.64879464.4459963.31539739.8219932.71839406 1.1059909 1.18459021l5.6559532 9.28792328c.2919976.477996.4779961 1.0119916.5499955 1.567987s.0259998 1.1199907-.1339989 1.6579863c-.1599987.5359956-.4319964 1.0339915-.7959934 1.4579879-.365997.4259965-.8159933.7699937-1.3219891 1.0099917l-35.52370642 16.8598607c-.9079925.4319964-1.94598392.5039958-2.90597599.2059983-.95999206-.2999976-1.77198535-.9499922-2.27398121-1.819985l-2.20998173-3.8319683c-.50199585-.8679929-.65799456-1.8939844-.43999636-2.8719763.21799819-.9779919.79599342-1.8399848 1.61998661-2.4119801l32.0797349-22.31581553c.4479963-.31159743.9559921-.52799564 1.4899877-.63639474.5339955-.10819911 1.085991-.10579913 1.6199866.00699994zm-28.31376603 21.81721973-5.16395732 3.5919703c-.2059983.1439988-.34999711.357997-.40399666.601995-.05399956.245998-.01599987.5019959.10999909.7179941l2.20998173 3.8299683c.12599896.2179982.32999728.3799969.56999529.4539963.23999802.0739994.49799589.0559995.725994-.0519996l5.6759531-2.6939777zm18.15384993-12.6298957-15.6838703 10.9099099 3.9739671 6.8799431 17.423856-8.2699316zm9.2709605-6.27520736-.135036.01725912c-.1339989.02799977-.2599978.08199932-.3719969.15999868l-6.295948 4.3799638 5.9679507 9.94791776.002-.002 6.9799423-3.3119726c.125999-.0599995.2379981-.1459988.3299973-.2519979.0919992-.1079991.1579987-.2319981.1979984-.365997.0399996-.1339989.0519995-.2759977.0339997-.4139966-.0179999-.1379988-.0659995-.2719977-.1379989-.3919967l-5.6519533-9.28792326c-.0699994-.11599904-.1639986-.2179982-.2759977-.29599755-.1119991-.07999934-.237998-.13599888-.3719969-.16399865s-.2719978-.02799977-.4059967-.00199998z" fill="#230138" transform="translate(16 16)"/></g><g transform="matrix(.96592583 -.25881905 .25881905 .96592583 1400.50011863039 710.20561237371)"><rect fill="#000" filter="url(#s)" height="80" rx="40" width="80"/><rect fill="#fafbfd" height="83" rx="40" stroke="#dadada" stroke-width="3" width="83" x="-1.5" y="-1.5"/><path d="m25.0798258 2.17084859 16.4998636 5.34995578c.7039942.22799812 1.3159891.67199445 1.7499856 1.26998951.4359964.59799506.6699944 1.31798912.6699944 2.05798302v10.0479169c0 12.3798977-7.5399377 21.4098231-18.8018446 25.659788-.7719936.2899976-1.6239866.2899976-2.3959802 0-11.2599069-4.2519649-18.8018446-13.2798903-18.8018446-25.659788v-10.0479169c0-1.51998747.9799919-2.85997639 2.41998-3.32797253l16.4998636-5.34995578c.7019942-.22779812 1.457988-.22779812 2.1599822 0zm-1.2339898 2.85197643-16.49986365 5.35395578c-.09999918.0319997-.18799845.0959992-.24999794.1799985-.06199948.0859993-.0959992.1879984-.0959992.2939976v10.0459169c0 10.9219098 6.55994579 18.9658433 16.85986069 22.8518112.0899992.0339997.1899984.0339997.2799977 0 10.2999148-3.8859679 16.8598606-11.9319014 16.8598606-22.8518112v-10.0479169c0-.1059992-.0339997-.2079983-.0959992-.2939976-.0619995-.0839993-.1499987-.1479988-.2499979-.1799985l-16.4998637-5.35195578c-.0999991-.03199974-.2079982-.03199974-.3079974 0zm.1539987 24.87379438c.5299956 0 1.0399914.2099983 1.4139883.5859952.3759969.3739969.5859952.8839927.5859952 1.4139883s-.2099983 1.0399914-.5859952 1.4139883c-.3739969.3759969-.8839927.5859952-1.4139883.5859952s-1.0399914-.2099983-1.4139883-.5859952c-.3759969-.3739969-.5859952-.8839927-.5859952-1.4139883s.2099983-1.0399914.5859952-1.4139883c.3739969-.3759969.8839927-.5859952 1.4139883-.5859952zm0-15.9998677c.3979967 0 .7799936.1579987 1.0599913.4399963.2819976.2799977.4399963.6619946.4399963 1.0599913v8.9999256c0 .3979967-.1579987.7799936-.4399963 1.0599912-.2799977.2819977-.6619946.4399964-1.0599913.4399964s-.7799935-.1579987-1.0599912-.4399964c-.2819977-.2799976-.4399964-.6619945-.4399964-1.0599912v-8.9999256c0-.3979967.1579987-.7799936.4399964-1.0599913.2799977-.2819976.6619945-.4399963 1.0599912-.4399963z" fill="#230138" transform="translate(16 16)"/></g><g transform="matrix(.96592583 -.25881905 .25881905 .96592583 1462.1346619008 413.40518768306)"><rect fill="#000" filter="url(#t)" height="80" rx="40" width="80"/><rect fill="#ffc438" height="83" rx="40" stroke="#fefefe" stroke-width="3" width="83" x="-1.5" y="-1.5"/><path d="m23.9998512 3c6.9939422 0 11.9999009 5.68995298 11.9999009 12.4998967v3.4999711h.9999917c1.325989 0 2.5979785.5267756 3.5359708 1.4644479.9379922.9377322 1.4639879 2.2095217 1.4639879 3.5355107v15.9998678c0 1.3259891-.5259957 2.5977785-1.4639879 3.5355708-.9379923.9375922-2.2099818 1.4643879-3.5359708 1.4643879h-25.9997851c-1.32598906 0-2.59797855-.5267957-3.5359708-1.4643879-.93799225-.9377923-1.4639879-2.2095817-1.4639879-3.5355708v-15.9998678c0-1.325989.52599565-2.5977785 1.4639879-3.5355107.93799225-.9376723 2.20998174-1.4644479 3.5359708-1.4644479h.9999917v-3.4999711c0-6.80994372 5.0059586-12.4998967 11.9999008-12.4998967zm12.9998926 18.999843h-25.9997851c-.5299956 0-1.03999143.2107982-1.41398834.5857951-.37599689.3749969-.58599515.8837927-.58599515 1.4141883v15.9998678c0 .5303956.20999826 1.0391914.58599515 1.4141883.37399691.3749969.88399274.5857952 1.41398834.5857952h25.9997851c.5299956 0 1.0399914-.2107983 1.4139883-.5857952.3759969-.3749969.5859952-.8837927.5859952-1.4141883v-15.9998678c0-.5303956-.2099983-1.0391914-.5859952-1.4141883-.3739969-.3749969-.8839927-.5857951-1.4139883-.5857951zm-12.9998926-15.99986779c-5.1559573 0-8.9999256 4.15996559-8.9999256 9.49992149v3.4999711h17.9998513v-3.4999711c0-5.3399559-3.8439683-9.49992149-8.9999257-9.49992149z" fill="#fff" fill-rule="nonzero" transform="translate(16 16)"/></g><g transform="matrix(.96592583 -.25881905 .25881905 .96592583 1090.15110786614 146.9969756151)"><rect fill="#000" filter="url(#u)" height="80" rx="40" width="80"/><rect fill="#fafbfd" height="83" rx="40" stroke="#dadada" stroke-width="3" width="83" x="-1.5" y="-1.5"/><path d="m36.5 3c1.724 0 3.3772.68482 4.5962 1.9038 1.219 1.219 1.9038 2.8723 1.9038 4.5962s-.6848 3.3772-1.9038 4.5962c-.8587338.8587197-1.9329438 1.4523569-3.0955876 1.7282417l-.0006124 1.6755583c0 1.98912-.7902 3.8968-2.1966 5.3034-1.4066 1.4064-3.3142 2.1966-5.3034 2.1966h-5l.0006124 7.1755546c1.0655608.2528437 2.0568401.7725885 2.8760367 1.5187037l.2195509.2095417c1.219 1.219 1.9038 2.8722 1.9038 4.5962s-.6848 3.3772-1.9038 4.5962-2.8722 1.9038-4.5962 1.9038-3.3772-.6848-4.5962-1.9038c-1.21898-1.219-1.9038-2.8722-1.9038-4.5962s.68482-3.3772 1.9038-4.5962c.8589819-.8589819 1.9335646-1.4527082 3.0965954-1.7284844l-.0003954-7.1753156h-5c-1.98912 0-3.89678-.7902-5.3033-2.1966-1.40652-1.4066-2.1967-3.31428-2.1967-5.3034l.0004394-1.6753193c-1.16302515-.2757808-2.23765752-.8695129-3.0966394-1.7284807-1.21898-1.219-1.9038-2.8723-1.9038-4.5962s.68482-3.3772 1.9038-4.5962c1.219-1.21898 2.8723-1.9038 4.5962-1.9038s3.3772.68482 4.5962 1.9038c1.21898 1.219 1.9038 2.8723 1.9038 4.5962s-.68482 3.3772-1.9038 4.5962c-.8587338.8587197-1.9329935 1.4523569-3.0956316 1.7282417l-.0005684 1.6755583c0 1.19348.4741 2.33806 1.31802 3.182.84392.8438 1.9885 1.318 3.18198 1.318h13c1.1934 0 2.338-.4742 3.182-1.318.8438-.84394 1.318-1.98852 1.318-3.182l.0003954-1.6753193c-1.1630308-.2757808-2.2376135-.8695129-3.0965954-1.7284807-1.219-1.219-1.9038-2.8723-1.9038-4.5962s.6848-3.3772 1.9038-4.5962c1.219-1.21898 2.8722-1.9038 4.5962-1.9038zm-12.5 32c-.9282 0-1.8184.3688-2.4748 1.0252s-1.0252 1.5466-1.0252 2.4748.3688 1.8184 1.0252 2.4748 1.5466 1.0252 2.4748 1.0252 1.8184-.3688 2.4748-1.0252 1.0252-1.5466 1.0252-2.4748-.3688-1.8184-1.0252-2.4748-1.5466-1.0252-2.4748-1.0252zm-12.5-29c-.45962 0-.91476.09054-1.3394.26642-.42464.1759-.81046.4337-1.13548.7587-.325.32502-.5828.71084-.7587 1.13548s-.26642.87978-.26642 1.3394.09052.91476.26642 1.3394.4337.81046.7587 1.13548c.32502.325.71084.5828 1.13548.7587s.87978.26642 1.3394.26642c.92826 0 1.8185-.36874 2.47488-1.02512s1.02512-1.54662 1.02512-2.47488-.36874-1.8185-1.02512-2.47488-1.54662-1.02512-2.47488-1.02512zm25 0c-.4596 0-.9148.09054-1.3394.26642-.4246.1759-.8104.4337-1.1354.7587-.325.32502-.5828.71084-.7588 1.13548-.1758.42464-.2664.87978-.2664 1.3394s.0906.91476.2664 1.3394c.176.42464.4338.81046.7588 1.13548.325.325.7108.5828 1.1354.7587s.8798.26642 1.3394.26642c.9282 0 1.8184-.36874 2.4748-1.02512s1.0252-1.54662 1.0252-2.47488-.3688-1.8185-1.0252-2.47488-1.5466-1.02512-2.4748-1.02512z" fill="#230138" transform="translate(16 16)"/></g><g transform="matrix(.96592583 -.25881905 .25881905 .96592583 1619.35392324635 236.70700255993)"><rect fill="#000" filter="url(#v)" height="80" rx="40" width="80"/><rect fill="#fafbfd" height="83" rx="40" stroke="#dadada" stroke-width="3" width="83" x="-1.5" y="-1.5"/><path d="m23.7678036 7c6.8639432 0 12.2478987 3.0679746 16.1078668 6.4819464 3.8519682 3.4059719 6.2639483 7.2199404 7.2319403 8.9199263.2799977.485996.4279964 1.0369914.4279964 1.5979868s-.1479987 1.1119908-.4279964 1.5979868c-.967992 1.6999859-3.3799721 5.5139544-7.2319403 8.9219263-3.8579681 3.4119718-9.2439236 6.4799464-16.1078668 6.4799464-6.8639433 0-12.2478988-3.0679746-16.10786691-6.4799464-3.85196816-3.4039719-6.26394823-7.2199404-7.23194023-8.9199263-.27999768-.485996-.42799646-1.0369914-.42799646-1.5979868s.14799878-1.1119908.42799646-1.5979868c.967992-1.699986 3.37997207-5.5139544 7.23194023-8.9239263 3.85796811-3.4119718 9.24392361-6.4799464 16.10786691-6.4799464zm0 2.99997521c-5.9099512 0-10.6199123 2.62797829-14.11988333 5.72995269-3.51197098 3.1039743-5.73195263 6.6119453-6.61394534 8.1599325-.01999984.0329997-.03199974.0709994-.03399972.1099991 0 .0397997.0119999.0783994.03399972.1119991.88199271 1.5479872 3.10197436 5.0539582 6.61394534 8.1599325 3.50197103 3.0979744 8.20993213 5.7279527 14.11988333 5.7279527 5.9099511 0 10.6199122-2.6299783 14.1198833-5.7279527 3.511971-3.1059743 5.7319526-6.6119453 6.6139453-8.1599325.0219998-.0335997.0319998-.0721994.0339997-.1119991-.0019999-.0397997-.0119999-.0783993-.0339997-.1119991-.8819927-1.5459872-3.1019743-5.0539582-6.6139453-8.1599325-3.5019711-3.0979744-8.2099322-5.72795269-14.1198833-5.72795269zm0 6.99994219c1.8559846 0 3.6359699.7374939 4.9499591 2.050243 1.3119891 1.3127292 2.049983 3.0931144 2.049983 4.9496991 0 .9191924-.1819985 1.8295849-.5319956 2.6787779-.3519971.8491929-.8679928 1.6209866-1.5179874 2.2709812-.6499947.6499946-1.4219883 1.1655904-2.2719813 1.5173875-.847993.3517971-1.7579854.5327956-2.6779778.5327956s-1.8299849-.1809985-2.6779779-.5327956c-.849993-.3517971-1.6219866-.8673929-2.2719812-1.5173875s-1.1659904-1.4217883-1.5179875-2.2709812c-.3499971-.849193-.5319956-1.7595855-.5319956-2.6787779 0-1.8565847.7379939-3.6369699 2.0499831-4.9496991 1.3139891-1.3127491 3.0939744-2.050243 4.9499591-2.050243z" fill="#230138" transform="translate(16 16)"/></g><g transform="matrix(.96592583 -.25881905 .25881905 .96592583 1508.67298613817 116.16496631225)"><rect fill="#000" filter="url(#w)" height="80" rx="40" width="80"/><rect fill="#fafbfd" height="83" rx="40" stroke="#dadada" stroke-width="3" width="83" x="-1.5" y="-1.5"/><path d="m36.5 3c1.724 0 3.3772.68482 4.5962 1.9038 1.219 1.219 1.9038 2.8723 1.9038 4.5962s-.6848 3.3772-1.9038 4.5962c-.8587338.8587197-1.9329438 1.4523569-3.0955876 1.7282417l-.0006124 1.6755583c0 1.98912-.7902 3.8968-2.1966 5.3034-1.4066 1.4064-3.3142 2.1966-5.3034 2.1966h-14c-.92826 0-1.8185.3688-2.47488 1.0252s-1.02512 1.5466-1.02512 2.4748v3.5c0 .0579553-.0033545.1155668-.0099559.1725741 1.1657529.2747708 2.2444617.8695317 3.1061559 1.7312259 1.21898 1.219 1.9038 2.8722 1.9038 4.5962s-.68482 3.3772-1.9038 4.5962c-1.219 1.219-2.8723 1.9038-4.5962 1.9038s-3.3772-.6848-4.5962-1.9038c-1.21898-1.219-1.9038-2.8722-1.9038-4.5962s.68482-3.3772 1.9038-4.5962c.86144951-.8614495 1.93979029-1.4561173 3.1066647-1.7308532-.0071163-.05683-.0104647-.1144997-.0104647-.1729468v-16c0-.0579019.003348-.1154589.0099366-.1724121-1.1657336-.2749411-2.24444236-.8697078-3.1061366-1.7313879-1.21898-1.219-1.9038-2.8723-1.9038-4.5962s.68482-3.3772 1.9038-4.5962c1.219-1.21898 2.8723-1.9038 4.5962-1.9038s3.3772.68482 4.5962 1.9038c1.21898 1.219 1.9038 2.8723 1.9038 4.5962s-.68482 3.3772-1.9038 4.5962c-.8616942.8616801-1.940403 1.4564468-3.1076592 1.7310837.0081112.0572574.0114592.1148144.0114592.1727163l.0000156 7.0227267c1.0371053-.6626798 2.2499852-1.0227267 3.4999844-1.0227267h14c1.1934 0 2.338-.4742 3.182-1.318.8438-.84394 1.318-1.98852 1.318-3.182l.0003954-1.6753193c-1.1630308-.2757808-2.2376135-.8695129-3.0965954-1.7284807-1.219-1.219-1.9038-2.8723-1.9038-4.5962s.6848-3.3772 1.9038-4.5962c1.219-1.21898 2.8722-1.9038 4.5962-1.9038zm-25 32c-.92826 0-1.8185.3688-2.47488 1.0252s-1.02512 1.5466-1.02512 2.4748.36874 1.8184 1.02512 2.4748 1.54662 1.0252 2.47488 1.0252 1.8185-.3688 2.47488-1.0252 1.02512-1.5466 1.02512-2.4748-.36874-1.8184-1.02512-2.4748-1.54662-1.0252-2.47488-1.0252zm0-29c-.45962 0-.91476.09054-1.3394.26642-.42464.1759-.81046.4337-1.13548.7587-.325.32502-.5828.71084-.7587 1.13548s-.26642.87978-.26642 1.3394.09052.91476.26642 1.3394.4337.81046.7587 1.13548c.32502.325.71084.5828 1.13548.7587s.87978.26642 1.3394.26642c.92826 0 1.8185-.36874 2.47488-1.02512s1.02512-1.54662 1.02512-2.47488-.36874-1.8185-1.02512-2.47488-1.54662-1.02512-2.47488-1.02512zm25 0c-.4596 0-.9148.09054-1.3394.26642-.4246.1759-.8104.4337-1.1354.7587-.325.32502-.5828.71084-.7588 1.13548-.1758.42464-.2664.87978-.2664 1.3394s.0906.91476.2664 1.3394c.176.42464.4338.81046.7588 1.13548.325.325.7108.5828 1.1354.7587s.8798.26642 1.3394.26642c.9282 0 1.8184-.36874 2.4748-1.02512s1.0252-1.54662 1.0252-2.47488-.3688-1.8185-1.0252-2.47488-1.5466-1.02512-2.4748-1.02512z" fill="#230138" transform="translate(16 16)"/></g></g></svg>