<svg height="27" viewBox="0 0 26 27" width="26" xmlns="http://www.w3.org/2000/svg"><path d="m424 501c.512836 0 .935507.38604.993272.883379l.006728.116621v2h3c1.597681 0 2.903661 1.24892 2.994907 2.823727l.005093.176273v18c0 1.597681-1.24892 2.903661-2.823727 2.994907l-.176273.005093h-18c-.552285 0-1-.447715-1-1 0-.512836.38604-.935507.883379-.993272l.116621-.006728h18c.512836 0 .935507-.38604.993272-.883379l.006728-.116621v-13h-22v3c0 .552285-.447715 1-1 1-.512836 0-.935507-.38604-.993272-.883379l-.006728-.116621v-8c0-1.597681 1.24892-2.903661 2.823727-2.994907l.176273-.005093h3v-2c0-.552285.447715-1 1-1 .512836 0 .935507.38604.993272.883379l.006728.116621v2h10v-2c0-.552285.447715-1 1-1zm-10.387101 13.209705.094208.083188 4 4c.360484.360484.388213.927715.083188 1.320006l-.083188.094208-4 4c-.390525.390524-1.023689.390524-1.414214 0-.360484-.360484-.388213-.927715-.083188-1.320006l.083188-.094208 2.292107-2.292893h-2.585c-2.688755 0-4.881818 2.122307-4.99538 4.78311l-.00462.21689v2c0 .552285-.447715 1-1 1-.512836 0-.935507-.38604-.993272-.883379l-.006728-.116621v-2c0-3.785452 3.004783-6.869099 6.75935-6.995941l.24065-.004059h2.585l-2.292107-2.292893c-.360484-.360484-.388213-.927715-.083188-1.320006l.083188-.094208c.360484-.360484.927715-.388213 1.320006-.083188zm14.387101-8.209705h-20c-.512836 0-.935507.38604-.993272.883379l-.006728.116621v3h22v-3c0-.512836-.38604-.935507-.883379-.993272z" fill="#fff" transform="translate(-405 -501)"/></svg>