<svg height="537" viewBox="0 0 1400 537" width="1400" xmlns="http://www.w3.org/2000/svg"><g fill="none" fill-rule="evenodd" transform="translate(0 1)"><g fill="#150e2d" fill-rule="nonzero" transform="matrix(1 0 0 -1 0 535.506)"><path d="m712.006861 180.102916h-24.013722c-1.987136 0-3.602058 1.612521-3.602058 3.602058v24.013722c0 1.989537 1.614922 3.602059 3.602058 3.602059h24.013722c1.987136 0 3.602058-1.612522 3.602058-3.602059v-24.013722c0-1.989537-1.614922-3.602058-3.602058-3.602058zm0-36.020583h-24.013722c-1.987136 0-3.602058 1.612521-3.602058 3.602058v24.013722c0 1.989537 1.614922 3.602059 3.602058 3.602059h24.013722c1.987136 0 3.602058-1.612522 3.602058-3.602059v-24.013722c0-1.989537-1.614922-3.602058-3.602058-3.602058z"/><path d="m712.006861 216.123499h-24.013722c-1.987136 0-3.602058 1.612522-3.602058 3.602058v24.013723c0 1.989536 1.614922 3.602058 3.602058 3.602058h24.013722c1.987136 0 3.602058-1.612522 3.602058-3.602058v-24.013723c0-1.989536-1.614922-3.602058-3.602058-3.602058z" fill-opacity=".5"/><path d="m748.027444 216.123499h-24.013722c-1.987135 0-3.602058 1.612522-3.602058 3.602058v24.013723c0 1.989536 1.614923 3.602058 3.602058 3.602058h24.013722c1.987136 0 3.602059-1.612522 3.602059-3.602058v-24.013723c0-1.989536-1.614923-3.602058-3.602059-3.602058z"/><path d="m675.986278 180.102916h-24.013722c-1.987136 0-3.602059 1.612521-3.602059 3.602058v24.013722c0 1.989537 1.614923 3.602059 3.602059 3.602059h24.013722c1.987135 0 3.602058-1.612522 3.602058-3.602059v-24.013722c0-1.989537-1.614923-3.602058-3.602058-3.602058z" fill-opacity=".7"/><path d="m784.048027 180.102916h-24.013722c-1.987135 0-3.602058 1.612521-3.602058 3.602058v24.013722c0 1.989537 1.614923 3.602059 3.602058 3.602059h24.013722c1.987136 0 3.602059-1.612522 3.602059-3.602059v-24.013722c0-1.989537-1.614923-3.602058-3.602059-3.602058zm0-36.020583h-24.013722c-1.987135 0-3.602058 1.612521-3.602058 3.602058v24.013722c0 1.989537 1.614923 3.602059 3.602058 3.602059h24.013722c1.987136 0 3.602059-1.612522 3.602059-3.602059v-24.013722c0-1.989537-1.614923-3.602058-3.602059-3.602058z"/><path d="m639.965695 216.123499h-24.013722c-1.987136 0-3.602059 1.612522-3.602059 3.602058v24.013723c0 1.989536 1.614923 3.602058 3.602059 3.602058h24.013722c1.987135 0 3.602058-1.612522 3.602058-3.602058v-24.013723c0-1.989536-1.614923-3.602058-3.602058-3.602058zm180.102916 0h-24.013722c-1.987136 0-3.602059 1.612522-3.602059 3.602058v24.013723c0 1.989536 1.614923 3.602058 3.602059 3.602058h24.013722c1.987135 0 3.602058-1.612522 3.602058-3.602058v-24.013723c0-1.989536-1.614923-3.602058-3.602058-3.602058z" fill-opacity=".3"/><path d="m603.945111 144.082333h-24.013722c-1.989537 0-3.602058 1.612521-3.602058 3.602058v24.013722c0 1.989537 1.612521 3.602059 3.602058 3.602059h24.013722c1.987136 0 3.602059-1.612522 3.602059-3.602059v-24.013722c0-1.989537-1.614923-3.602058-3.602059-3.602058z" fill-opacity=".4"/><path d="m567.924528 144.082333h-24.013722c-1.989537 0-3.602058 1.612521-3.602058 3.602058v24.013722c0 1.989537 1.612521 3.602059 3.602058 3.602059h24.013722c1.989537 0 3.602059-1.612522 3.602059-3.602059v-24.013722c0-1.989537-1.612522-3.602058-3.602059-3.602058zm288.164666 0h-24.013722c-1.987136 0-3.602059 1.612521-3.602059 3.602058v24.013722c0 1.989537 1.614923 3.602059 3.602059 3.602059h24.013722c1.987135 0 3.602058-1.612522 3.602058-3.602059v-24.013722c0-1.989537-1.614923-3.602058-3.602058-3.602058z" fill-opacity=".3"/><path d="m892.109777 144.082333h-24.013722c-1.987136 0-3.602058 1.612521-3.602058 3.602058v24.013722c0 1.989537 1.614922 3.602059 3.602058 3.602059h24.013722c1.987136 0 3.602058-1.612522 3.602058-3.602059v-24.013722c0-1.989537-1.614922-3.602058-3.602058-3.602058z" fill-opacity=".6"/><path d="m495.883362 216.123499h-24.013722c-1.989537 0-3.602059 1.612522-3.602059 3.602058v24.013723c0 1.989536 1.612522 3.602058 3.602059 3.602058h24.013722c1.989537 0 3.602058-1.612522 3.602058-3.602058v-24.013723c0-1.989536-1.612521-3.602058-3.602058-3.602058z" fill-opacity=".5"/><path d="m495.883362 180.102916h-24.013722c-1.989537 0-3.602059 1.612521-3.602059 3.602058v24.013722c0 1.989537 1.612522 3.602059 3.602059 3.602059h24.013722c1.989537 0 3.602058-1.612522 3.602058-3.602059v-24.013722c0-1.989537-1.612521-3.602058-3.602058-3.602058z" fill-opacity=".3"/><path d="m495.883362 144.082333h-24.013722c-1.989537 0-3.602059 1.612521-3.602059 3.602058v24.013722c0 1.989537 1.612522 3.602059 3.602059 3.602059h24.013722c1.989537 0 3.602058-1.612522 3.602058-3.602059v-24.013722c0-1.989537-1.612521-3.602058-3.602058-3.602058zm432.246998 0h-24.013722c-1.987135 0-3.602058 1.612521-3.602058 3.602058v24.013722c0 1.989537 1.614923 3.602059 3.602058 3.602059h24.013722c1.987136 0 3.602059-1.612522 3.602059-3.602059v-24.013722c0-1.989537-1.614923-3.602058-3.602059-3.602058z"/><path d="m928.13036 216.123499h-24.013722c-1.987135 0-3.602058 1.612522-3.602058 3.602058v24.013723c0 1.989536 1.614923 3.602058 3.602058 3.602058h24.013722c1.987136 0 3.602059-1.612522 3.602059-3.602058v-24.013723c0-1.989536-1.614923-3.602058-3.602059-3.602058z" fill-opacity=".3"/><path d="m459.862779 216.123499h-24.013722c-1.989537 0-3.602059 1.612522-3.602059 3.602058v24.013723c0 1.989536 1.612522 3.602058 3.602059 3.602058h24.013722c1.989537 0 3.602058-1.612522 3.602058-3.602058v-24.013723c0-1.989536-1.612521-3.602058-3.602058-3.602058zm504.288164-108.061749h-24.013722c-1.987135 0-3.602058 1.612521-3.602058 3.602058v24.013722c0 1.989537 1.614923 3.602058 3.602058 3.602058h24.013722c1.987136 0 3.602059-1.612521 3.602059-3.602058v-24.013722c0-1.989537-1.614923-3.602058-3.602059-3.602058zm0 36.020583h-24.013722c-1.987135 0-3.602058 1.612521-3.602058 3.602058v24.013722c0 1.989537 1.614923 3.602059 3.602058 3.602059h24.013722c1.987136 0 3.602059-1.612522 3.602059-3.602059v-24.013722c0-1.989537-1.614923-3.602058-3.602059-3.602058zm0 36.020583h-24.013722c-1.987135 0-3.602058 1.612521-3.602058 3.602058v24.013722c0 1.989537 1.614923 3.602059 3.602058 3.602059h24.013722c1.987136 0 3.602059-1.612522 3.602059-3.602059v-24.013722c0-1.989537-1.614923-3.602058-3.602059-3.602058zm-108.061749 0h-24.013722c-1.987136 0-3.602059 1.612521-3.602059 3.602058v24.013722c0 1.989537 1.614923 3.602059 3.602059 3.602059h24.013722c1.987135 0 3.602058-1.612522 3.602058-3.602059v-24.013722c0-1.989537-1.614923-3.602058-3.602058-3.602058zm-324.185249 0h-24.013722c-1.987136 0-3.602058 1.612521-3.602058 3.602058v24.013722c0 1.989537 1.614922 3.602059 3.602058 3.602059h24.013722c1.987136 0 3.602058-1.612522 3.602058-3.602059v-24.013722c0-1.989537-1.614922-3.602058-3.602058-3.602058zm432.246998 36.020583h-24.013722c-1.987135 0-3.602058 1.612522-3.602058 3.602058v24.013723c0 1.989536 1.614923 3.602058 3.602058 3.602058h24.013722c1.987136 0 3.602059-1.612522 3.602059-3.602058v-24.013723c0-1.989536-1.614923-3.602058-3.602059-3.602058zm-108.061749 0h-24.013722c-1.987136 0-3.602059 1.612522-3.602059 3.602058v24.013723c0 1.989536 1.614923 3.602058 3.602059 3.602058h24.013722c1.987135 0 3.602058-1.612522 3.602058-3.602058v-24.013723c0-1.989536-1.614923-3.602058-3.602058-3.602058zm-324.185249 0h-24.013722c-1.987136 0-3.602058 1.612522-3.602058 3.602058v24.013723c0 1.989536 1.614922 3.602058 3.602058 3.602058h24.013722c1.987136 0 3.602058-1.612522 3.602058-3.602058v-24.013723c0-1.989536-1.614922-3.602058-3.602058-3.602058zm468.267585-180.1029158h-24.013726c-1.987135 0-3.602058 1.6127015-3.602058 3.6020583v24.0137221c0 1.9895369 1.614923 3.6020584 3.602058 3.6020584h24.013726c1.98713 0 3.60205-1.6125215 3.60205-3.6020584v-24.0137221c0-1.9893568-1.61492-3.6020583-3.60205-3.6020583z"/><path d="m1000.17153 144.082333h-24.013726c-1.987135 0-3.602058 1.612521-3.602058 3.602058v24.013722c0 1.989537 1.614923 3.602059 3.602058 3.602059h24.013726c1.98713 0 3.60205-1.612522 3.60205-3.602059v-24.013722c0-1.989537-1.61492-3.602058-3.60205-3.602058z" fill-opacity=".3"/><path d="m1000.17153 180.102916h-24.013726c-1.987135 0-3.602058 1.612521-3.602058 3.602058v24.013722c0 1.989537 1.614923 3.602059 3.602058 3.602059h24.013726c1.98713 0 3.60205-1.612522 3.60205-3.602059v-24.013722c0-1.989537-1.61492-3.602058-3.60205-3.602058zm-108.061753 0h-24.013722c-1.987136 0-3.602058 1.612521-3.602058 3.602058v24.013722c0 1.989537 1.614922 3.602059 3.602058 3.602059h24.013722c1.987136 0 3.602058-1.612522 3.602058-3.602059v-24.013722c0-1.989537-1.614922-3.602058-3.602058-3.602058zm-324.185249 0h-24.013722c-1.987135 0-3.602058 1.612521-3.602058 3.602058v24.013722c0 1.989537 1.614923 3.602059 3.602058 3.602059h24.013722c1.987136 0 3.602059-1.612522 3.602059-3.602059v-24.013722c0-1.989537-1.614923-3.602058-3.602059-3.602058zm432.247002 36.020583h-24.013726c-1.987135 0-3.602058 1.612522-3.602058 3.602058v24.013723c0 1.989536 1.614923 3.602058 3.602058 3.602058h24.013726c1.98713 0 3.60205-1.612522 3.60205-3.602058v-24.013723c0-1.989536-1.61492-3.602058-3.60205-3.602058zm-108.061753 0h-24.013722c-1.987136 0-3.602058 1.612522-3.602058 3.602058v24.013723c0 1.989536 1.614922 3.602058 3.602058 3.602058h24.013722c1.987136 0 3.602058-1.612522 3.602058-3.602058v-24.013723c0-1.989536-1.614922-3.602058-3.602058-3.602058zm-324.185249 0h-24.013722c-1.987135 0-3.602058 1.612522-3.602058 3.602058v24.013723c0 1.989536 1.614923 3.602058 3.602058 3.602058h24.013722c1.987136 0 3.602059-1.612522 3.602059-3.602058v-24.013723c0-1.989536-1.614923-3.602058-3.602059-3.602058z"/><path d="m1000.17153 72.0411664h-24.013726c-1.987135 0-3.602058 1.6125214-3.602058 3.6020583v24.0137221c0 1.9895372 1.614923 3.6020582 3.602058 3.6020582h24.013726c1.98713 0 3.60205-1.612521 3.60205-3.6020582v-24.0137221c0-1.9895369-1.61492-3.6020583-3.60205-3.6020583z" fill-opacity=".3"/><path d="m423.842196 360.205832h-24.013723c-1.989536 0-3.602058 1.612521-3.602058 3.602058v24.013722c0 1.989537 1.612522 3.602059 3.602058 3.602059h24.013723c1.989536 0 3.602058-1.612522 3.602058-3.602059v-24.013722c0-1.989537-1.612522-3.602058-3.602058-3.602058zm0-144.082333h-24.013723c-1.989536 0-3.602058 1.612522-3.602058 3.602058v24.013723c0 1.989536 1.612522 3.602058 3.602058 3.602058h24.013723c1.989536 0 3.602058-1.612522 3.602058-3.602058v-24.013723c0-1.989536-1.612522-3.602058-3.602058-3.602058z"/><path d="m423.842196 72.0411664h-24.013723c-1.989536 0-3.602058 1.6125214-3.602058 3.6020583v24.0137221c0 1.9895372 1.612522 3.6020582 3.602058 3.6020582h24.013723c1.989536 0 3.602058-1.612521 3.602058-3.6020582v-24.0137221c0-1.9895369-1.612522-3.6020583-3.602058-3.6020583z" fill-opacity=".2"/><path d="m423.842196 144.082333h-24.013723c-1.989536 0-3.602058 1.612521-3.602058 3.602058v24.013722c0 1.989537 1.612522 3.602059 3.602058 3.602059h24.013723c1.989536 0 3.602058-1.612522 3.602058-3.602059v-24.013722c0-1.989537-1.612522-3.602058-3.602058-3.602058z" fill-opacity=".5"/><path d="m423.842196 180.102916h-24.013723c-1.989536 0-3.602058 1.612521-3.602058 3.602058v24.013722c0 1.989537 1.612522 3.602059 3.602058 3.602059h24.013723c1.989536 0 3.602058-1.612522 3.602058-3.602059v-24.013722c0-1.989537-1.612522-3.602058-3.602058-3.602058zm0-72.041166h-24.013723c-1.989536 0-3.602058 1.612521-3.602058 3.602058v24.013722c0 1.989537 1.612522 3.602058 3.602058 3.602058h24.013723c1.989536 0 3.602058-1.612521 3.602058-3.602058v-24.013722c0-1.989537-1.612522-3.602058-3.602058-3.602058zm-36.020584 252.144082h-24.013722c-1.989537 0-3.602058 1.612521-3.602058 3.602058v24.013722c0 1.989537 1.612521 3.602059 3.602058 3.602059h24.013722c1.989537 0 3.602059-1.612522 3.602059-3.602059v-24.013722c0-1.989537-1.612522-3.602058-3.602059-3.602058zm0-108.06175h-24.013722c-1.989537 0-3.602058 1.612522-3.602058 3.602059v24.013722c0 1.989537 1.612521 3.602058 3.602058 3.602058h24.013722c1.989537 0 3.602059-1.612521 3.602059-3.602058v-24.013722c0-1.989537-1.612522-3.602059-3.602059-3.602059z"/><path d="m387.821612 288.164666h-24.013722c-1.989537 0-3.602058 1.612521-3.602058 3.602058v24.013722c0 1.989537 1.612521 3.602058 3.602058 3.602058h24.013722c1.989537 0 3.602059-1.612521 3.602059-3.602058v-24.013722c0-1.989537-1.612522-3.602058-3.602059-3.602058z" fill-opacity=".5"/><path d="m387.821612 144.082333h-24.013722c-1.989537 0-3.602058 1.612521-3.602058 3.602058v24.013722c0 1.989537 1.612521 3.602059 3.602058 3.602059h24.013722c1.989537 0 3.602059-1.612522 3.602059-3.602059v-24.013722c0-1.989537-1.612522-3.602058-3.602059-3.602058zm0-36.020583h-24.013722c-1.989537 0-3.602058 1.612521-3.602058 3.602058v24.013722c0 1.989537 1.612521 3.602058 3.602058 3.602058h24.013722c1.989537 0 3.602059-1.612521 3.602059-3.602058v-24.013722c0-1.989537-1.612522-3.602058-3.602059-3.602058zm0 72.041166h-24.013722c-1.989537 0-3.602058 1.612521-3.602058 3.602058v24.013722c0 1.989537 1.612521 3.602059 3.602058 3.602059h24.013722c1.989537 0 3.602059-1.612522 3.602059-3.602059v-24.013722c0-1.989537-1.612522-3.602058-3.602059-3.602058zm648.370498 108.06175h-24.01372c-1.98714 0-3.60206 1.612521-3.60206 3.602058v24.013722c0 1.989537 1.61492 3.602058 3.60206 3.602058h24.01372c1.98714 0 3.60206-1.612521 3.60206-3.602058v-24.013722c0-1.989537-1.61492-3.602058-3.60206-3.602058zm0 72.041166h-24.01372c-1.98714 0-3.60206 1.612521-3.60206 3.602058v24.013722c0 1.989537 1.61492 3.602059 3.60206 3.602059h24.01372c1.98714 0 3.60206-1.612522 3.60206-3.602059v-24.013722c0-1.989537-1.61492-3.602058-3.60206-3.602058zm0-108.06175h-24.01372c-1.98714 0-3.60206 1.612522-3.60206 3.602059v24.013722c0 1.989537 1.61492 3.602058 3.60206 3.602058h24.01372c1.98714 0 3.60206-1.612521 3.60206-3.602058v-24.013722c0-1.989537-1.61492-3.602059-3.60206-3.602059zm0-108.061749h-24.01372c-1.98714 0-3.60206 1.612521-3.60206 3.602058v24.013722c0 1.989537 1.61492 3.602059 3.60206 3.602059h24.01372c1.98714 0 3.60206-1.612522 3.60206-3.602059v-24.013722c0-1.989537-1.61492-3.602058-3.60206-3.602058z"/><path d="m1036.19211 72.0411664h-24.01372c-1.98714 0-3.60206 1.6125214-3.60206 3.6020583v24.0137221c0 1.9895372 1.61492 3.6020582 3.60206 3.6020582h24.01372c1.98714 0 3.60206-1.612521 3.60206-3.6020582v-24.0137221c0-1.9895369-1.61492-3.6020583-3.60206-3.6020583z" fill-opacity=".8"/><path d="m1036.19211 108.06175h-24.01372c-1.98714 0-3.60206 1.612521-3.60206 3.602058v24.013722c0 1.989537 1.61492 3.602058 3.60206 3.602058h24.01372c1.98714 0 3.60206-1.612521 3.60206-3.602058v-24.013722c0-1.989537-1.61492-3.602058-3.60206-3.602058z"/><path d="m351.801029 72.0411664h-24.013722c-1.989537 0-3.602058 1.6125214-3.602058 3.6020583v24.0137221c0 1.9895372 1.612521 3.6020582 3.602058 3.6020582h24.013722c1.989537 0 3.602058-1.612521 3.602058-3.6020582v-24.0137221c0-1.9895369-1.612521-3.6020583-3.602058-3.6020583z" fill-opacity=".6"/><path d="m351.801029 252.144082h-24.013722c-1.989537 0-3.602058 1.612522-3.602058 3.602059v24.013722c0 1.989537 1.612521 3.602058 3.602058 3.602058h24.013722c1.989537 0 3.602058-1.612521 3.602058-3.602058v-24.013722c0-1.989537-1.612521-3.602059-3.602058-3.602059z" fill-opacity=".5"/><path d="m351.801029 324.185249h-24.013722c-1.989537 0-3.602058 1.612521-3.602058 3.602058v24.013722c0 1.989537 1.612521 3.602058 3.602058 3.602058h24.013722c1.989537 0 3.602058-1.612521 3.602058-3.602058v-24.013722c0-1.989537-1.612521-3.602058-3.602058-3.602058z" fill-opacity=".7"/><path d="m351.801029 216.123499h-24.013722c-1.989537 0-3.602058 1.612522-3.602058 3.602058v24.013723c0 1.989536 1.612521 3.602058 3.602058 3.602058h24.013722c1.989537 0 3.602058-1.612522 3.602058-3.602058v-24.013723c0-1.989536-1.612521-3.602058-3.602058-3.602058z" fill-opacity=".5"/><path d="m351.801029 288.164666h-24.013722c-1.989537 0-3.602058 1.612521-3.602058 3.602058v24.013722c0 1.989537 1.612521 3.602058 3.602058 3.602058h24.013722c1.989537 0 3.602058-1.612521 3.602058-3.602058v-24.013722c0-1.989537-1.612521-3.602058-3.602058-3.602058zm0-144.082333h-24.013722c-1.989537 0-3.602058 1.612521-3.602058 3.602058v24.013722c0 1.989537 1.612521 3.602059 3.602058 3.602059h24.013722c1.989537 0 3.602058-1.612522 3.602058-3.602059v-24.013722c0-1.989537-1.612521-3.602058-3.602058-3.602058zm720.411661 288.164665h-24.01372c-1.98713 0-3.60206 1.612522-3.60206 3.602059v24.013722c0 1.989537 1.61493 3.602058 3.60206 3.602058h24.01372c1.98714 0 3.60206-1.612521 3.60206-3.602058v-24.013722c0-1.989537-1.61492-3.602059-3.60206-3.602059z"/><path d="m1072.21269 468.267581h-24.01372c-1.98713 0-3.60206 1.612522-3.60206 3.602059v24.013722c0 1.989537 1.61493 3.602058 3.60206 3.602058h24.01372c1.98714 0 3.60206-1.612521 3.60206-3.602058v-24.013722c0-1.989537-1.61492-3.602059-3.60206-3.602059z" fill-opacity=".3"/><path d="m1072.21269 396.226415h-24.01372c-1.98713 0-3.60206 1.612522-3.60206 3.602058v24.013723c0 1.989536 1.61493 3.602058 3.60206 3.602058h24.01372c1.98714 0 3.60206-1.612522 3.60206-3.602058v-24.013723c0-1.989536-1.61492-3.602058-3.60206-3.602058zm0-180.102916h-24.01372c-1.98713 0-3.60206 1.612522-3.60206 3.602058v24.013723c0 1.989536 1.61493 3.602058 3.60206 3.602058h24.01372c1.98714 0 3.60206-1.612522 3.60206-3.602058v-24.013723c0-1.989536-1.61492-3.602058-3.60206-3.602058zm0 36.020583h-24.01372c-1.98713 0-3.60206 1.612522-3.60206 3.602059v24.013722c0 1.989537 1.61493 3.602058 3.60206 3.602058h24.01372c1.98714 0 3.60206-1.612521 3.60206-3.602058v-24.013722c0-1.989537-1.61492-3.602059-3.60206-3.602059z"/><path d="m1072.21269 288.164666h-24.01372c-1.98713 0-3.60206 1.612521-3.60206 3.602058v24.013722c0 1.989537 1.61493 3.602058 3.60206 3.602058h24.01372c1.98714 0 3.60206-1.612521 3.60206-3.602058v-24.013722c0-1.989537-1.61492-3.602058-3.60206-3.602058zm0-252.1440828h-24.01372c-1.98713 0-3.60206 1.6127015-3.60206 3.6020583v24.0137221c0 1.9895369 1.61493 3.6020584 3.60206 3.6020584h24.01372c1.98714 0 3.60206-1.6125215 3.60206-3.6020584v-24.0137221c0-1.9893568-1.61492-3.6020583-3.60206-3.6020583z" fill-opacity=".5"/><path d="m1072.21269 72.0411664h-24.01372c-1.98713 0-3.60206 1.6125214-3.60206 3.6020583v24.0137221c0 1.9895372 1.61493 3.6020582 3.60206 3.6020582h24.01372c1.98714 0 3.60206-1.612521 3.60206-3.6020582v-24.0137221c0-1.9895369-1.61492-3.6020583-3.60206-3.6020583z" fill-opacity=".4"/><path d="m1072.21269 108.06175h-24.01372c-1.98713 0-3.60206 1.612521-3.60206 3.602058v24.013722c0 1.989537 1.61493 3.602058 3.60206 3.602058h24.01372c1.98714 0 3.60206-1.612521 3.60206-3.602058v-24.013722c0-1.989537-1.61492-3.602058-3.60206-3.602058z"/><path d="m1108.23328 252.144082h-24.01373c-1.98713 0-3.60205 1.612522-3.60205 3.602059v24.013722c0 1.989537 1.61492 3.602058 3.60205 3.602058h24.01373c1.98713 0 3.60205-1.612521 3.60205-3.602058v-24.013722c0-1.989537-1.61492-3.602059-3.60205-3.602059z" fill-opacity=".3"/><path d="m1108.23328 432.246998h-24.01373c-1.98713 0-3.60205 1.612522-3.60205 3.602059v24.013722c0 1.989537 1.61492 3.602058 3.60205 3.602058h24.01373c1.98713 0 3.60205-1.612521 3.60205-3.602058v-24.013722c0-1.989537-1.61492-3.602059-3.60205-3.602059zm0-36.020583h-24.01373c-1.98713 0-3.60205 1.612522-3.60205 3.602058v24.013723c0 1.989536 1.61492 3.602058 3.60205 3.602058h24.01373c1.98713 0 3.60205-1.612522 3.60205-3.602058v-24.013723c0-1.989536-1.61492-3.602058-3.60205-3.602058z" fill-opacity=".5"/><path d="m1108.23328 468.267581h-24.01373c-1.98713 0-3.60205 1.612522-3.60205 3.602059v24.013722c0 1.989537 1.61492 3.602058 3.60205 3.602058h24.01373c1.98713 0 3.60205-1.612521 3.60205-3.602058v-24.013722c0-1.989537-1.61492-3.602059-3.60205-3.602059z"/><path d="m1108.23328 360.205832h-24.01373c-1.98713 0-3.60205 1.612521-3.60205 3.602058v24.013722c0 1.989537 1.61492 3.602059 3.60205 3.602059h24.01373c1.98713 0 3.60205-1.612522 3.60205-3.602059v-24.013722c0-1.989537-1.61492-3.602058-3.60205-3.602058z" fill-opacity=".7"/><path d="m1108.23328 324.185249h-24.01373c-1.98713 0-3.60205 1.612521-3.60205 3.602058v24.013722c0 1.989537 1.61492 3.602058 3.60205 3.602058h24.01373c1.98713 0 3.60205-1.612521 3.60205-3.602058v-24.013722c0-1.989537-1.61492-3.602058-3.60205-3.602058z" fill-opacity=".2"/><path d="m1108.23328 72.0411664h-24.01373c-1.98713 0-3.60205 1.6125214-3.60205 3.6020583v24.0137221c0 1.9895372 1.61492 3.6020582 3.60205 3.6020582h24.01373c1.98713 0 3.60205-1.612521 3.60205-3.6020582v-24.0137221c0-1.9895369-1.61492-3.6020583-3.60205-3.6020583zm0-72.0411664h-24.01373c-1.98713 0-3.60205 1.61269554-3.60205 3.60205832v24.01372208c0 1.9893568 1.61492 3.6020584 3.60205 3.6020584h24.01373c1.98713 0 3.60205-1.6127016 3.60205-3.6020584v-24.01372208c0-1.98936278-1.61492-3.60205832-3.60205-3.60205832z"/><path d="m1108.23328 36.0205832h-24.01373c-1.98713 0-3.60205 1.6127015-3.60205 3.6020583v24.0137221c0 1.9895369 1.61492 3.6020584 3.60205 3.6020584h24.01373c1.98713 0 3.60205-1.6125215 3.60205-3.6020584v-24.0137221c0-1.9893568-1.61492-3.6020583-3.60205-3.6020583z" fill-opacity=".5"/><path d="m1108.23328 180.102916h-24.01373c-1.98713 0-3.60205 1.612521-3.60205 3.602058v24.013722c0 1.989537 1.61492 3.602059 3.60205 3.602059h24.01373c1.98713 0 3.60205-1.612522 3.60205-3.602059v-24.013722c0-1.989537-1.61492-3.602058-3.60205-3.602058z"/><path d="m315.780446 288.164666h-24.013722c-1.989537 0-3.602058 1.612521-3.602058 3.602058v24.013722c0 1.989537 1.612521 3.602058 3.602058 3.602058h24.013722c1.989537 0 3.602058-1.612521 3.602058-3.602058v-24.013722c0-1.989537-1.612521-3.602058-3.602058-3.602058z" fill-opacity=".5"/><path d="m315.780446 432.246998h-24.013722c-1.989537 0-3.602058 1.612522-3.602058 3.602059v24.013722c0 1.989537 1.612521 3.602058 3.602058 3.602058h24.013722c1.989537 0 3.602058-1.612521 3.602058-3.602058v-24.013722c0-1.989537-1.612521-3.602059-3.602058-3.602059z" fill-opacity=".3"/><path d="m315.780446 468.267581h-24.013722c-1.989537 0-3.602058 1.612522-3.602058 3.602059v24.013722c0 1.989537 1.612521 3.602058 3.602058 3.602058h24.013722c1.989537 0 3.602058-1.612521 3.602058-3.602058v-24.013722c0-1.989537-1.612521-3.602059-3.602058-3.602059z"/><path d="m315.780446 360.205832h-24.013722c-1.989537 0-3.602058 1.612521-3.602058 3.602058v24.013722c0 1.989537 1.612521 3.602059 3.602058 3.602059h24.013722c1.989537 0 3.602058-1.612522 3.602058-3.602059v-24.013722c0-1.989537-1.612521-3.602058-3.602058-3.602058z" fill-opacity=".5"/><path d="m315.780446 396.226415h-24.013722c-1.989537 0-3.602058 1.612522-3.602058 3.602058v24.013723c0 1.989536 1.612521 3.602058 3.602058 3.602058h24.013722c1.989537 0 3.602058-1.612522 3.602058-3.602058v-24.013723c0-1.989536-1.612521-3.602058-3.602058-3.602058z"/><path d="m315.780446 144.082333h-24.013722c-1.989537 0-3.602058 1.612521-3.602058 3.602058v24.013722c0 1.989537 1.612521 3.602059 3.602058 3.602059h24.013722c1.989537 0 3.602058-1.612522 3.602058-3.602059v-24.013722c0-1.989537-1.612521-3.602058-3.602058-3.602058zm0 36.020583h-24.013722c-1.989537 0-3.602058 1.612521-3.602058 3.602058v24.013722c0 1.989537 1.612521 3.602059 3.602058 3.602059h24.013722c1.989537 0 3.602058-1.612522 3.602058-3.602059v-24.013722c0-1.989537-1.612521-3.602058-3.602058-3.602058z" fill-opacity=".5"/><path d="m315.780446 108.06175h-24.013722c-1.989537 0-3.602058 1.612521-3.602058 3.602058v24.013722c0 1.989537 1.612521 3.602058 3.602058 3.602058h24.013722c1.989537 0 3.602058-1.612521 3.602058-3.602058v-24.013722c0-1.989537-1.612521-3.602058-3.602058-3.602058z"/><path d="m315.780446 72.0411664h-24.013722c-1.989537 0-3.602058 1.6125214-3.602058 3.6020583v24.0137221c0 1.9895372 1.612521 3.6020582 3.602058 3.6020582h24.013722c1.989537 0 3.602058-1.612521 3.602058-3.6020582v-24.0137221c0-1.9895369-1.612521-3.6020583-3.602058-3.6020583z" fill-opacity=".2"/><path d="m315.780446 36.0205832h-24.013722c-1.989537 0-3.602058 1.6127015-3.602058 3.6020583v24.0137221c0 1.9895369 1.612521 3.6020584 3.602058 3.6020584h24.013722c1.989537 0 3.602058-1.6125215 3.602058-3.6020584v-24.0137221c0-1.9893568-1.612521-3.6020583-3.602058-3.6020583z"/><path d="m315.780446 0h-24.013722c-1.989537 0-3.602058 1.61269554-3.602058 3.60205832v24.01372208c0 1.9893568 1.612521 3.6020584 3.602058 3.6020584h24.013722c1.989537 0 3.602058-1.6127016 3.602058-3.6020584v-24.01372208c0-1.98936278-1.612521-3.60205832-3.602058-3.60205832z" fill-opacity=".3"/><path d="m1144.25386 504.288165h-24.01372c-1.98714 0-3.60206 1.612521-3.60206 3.602058v24.013722c0 1.989537 1.61492 3.602058 3.60206 3.602058h24.01372c1.98713 0 3.60206-1.612521 3.60206-3.602058v-24.013722c0-1.989537-1.61493-3.602058-3.60206-3.602058z" fill-opacity=".5"/><path d="m1144.25386 144.082333h-24.01372c-1.98714 0-3.60206 1.612521-3.60206 3.602058v24.013722c0 1.989537 1.61492 3.602059 3.60206 3.602059h24.01372c1.98713 0 3.60206-1.612522 3.60206-3.602059v-24.013722c0-1.989537-1.61493-3.602058-3.60206-3.602058zm0-72.0411666h-24.01372c-1.98714 0-3.60206 1.6125214-3.60206 3.6020583v24.0137221c0 1.9895372 1.61492 3.6020582 3.60206 3.6020582h24.01372c1.98713 0 3.60206-1.612521 3.60206-3.6020582v-24.0137221c0-1.9895369-1.61493-3.6020583-3.60206-3.6020583z"/><path d="m1144.25386 36.0205832h-24.01372c-1.98714 0-3.60206 1.6127015-3.60206 3.6020583v24.0137221c0 1.9895369 1.61492 3.6020584 3.60206 3.6020584h24.01372c1.98713 0 3.60206-1.6125215 3.60206-3.6020584v-24.0137221c0-1.9893568-1.61493-3.6020583-3.60206-3.6020583zm0 72.0411668h-24.01372c-1.98714 0-3.60206 1.612521-3.60206 3.602058v24.013722c0 1.989537 1.61492 3.602058 3.60206 3.602058h24.01372c1.98713 0 3.60206-1.612521 3.60206-3.602058v-24.013722c0-1.989537-1.61493-3.602058-3.60206-3.602058z" fill-opacity=".5"/><path d="m1144.25386 180.102916h-24.01372c-1.98714 0-3.60206 1.612521-3.60206 3.602058v24.013722c0 1.989537 1.61492 3.602059 3.60206 3.602059h24.01372c1.98713 0 3.60206-1.612522 3.60206-3.602059v-24.013722c0-1.989537-1.61493-3.602058-3.60206-3.602058zm0 108.06175h-24.01372c-1.98714 0-3.60206 1.612521-3.60206 3.602058v24.013722c0 1.989537 1.61492 3.602058 3.60206 3.602058h24.01372c1.98713 0 3.60206-1.612521 3.60206-3.602058v-24.013722c0-1.989537-1.61493-3.602058-3.60206-3.602058zm0 36.020583h-24.01372c-1.98714 0-3.60206 1.612521-3.60206 3.602058v24.013722c0 1.989537 1.61492 3.602058 3.60206 3.602058h24.01372c1.98713 0 3.60206-1.612521 3.60206-3.602058v-24.013722c0-1.989537-1.61493-3.602058-3.60206-3.602058z"/><path d="m1144.25386 360.205832h-24.01372c-1.98714 0-3.60206 1.612521-3.60206 3.602058v24.013722c0 1.989537 1.61492 3.602059 3.60206 3.602059h24.01372c1.98713 0 3.60206-1.612522 3.60206-3.602059v-24.013722c0-1.989537-1.61493-3.602058-3.60206-3.602058z" fill-opacity=".5"/><path d="m1144.25386 396.226415h-24.01372c-1.98714 0-3.60206 1.612522-3.60206 3.602058v24.013723c0 1.989536 1.61492 3.602058 3.60206 3.602058h24.01372c1.98713 0 3.60206-1.612522 3.60206-3.602058v-24.013723c0-1.989536-1.61493-3.602058-3.60206-3.602058z"/><path d="m1144.25386 432.246998h-24.01372c-1.98714 0-3.60206 1.612522-3.60206 3.602059v24.013722c0 1.989537 1.61492 3.602058 3.60206 3.602058h24.01372c1.98713 0 3.60206-1.612521 3.60206-3.602058v-24.013722c0-1.989537-1.61493-3.602059-3.60206-3.602059z" fill-opacity=".3"/><path d="m279.759863 180.102916h-24.013722c-1.989537 0-3.602059 1.612521-3.602059 3.602058v24.013722c0 1.989537 1.612522 3.602059 3.602059 3.602059h24.013722c1.989537 0 3.602058-1.612522 3.602058-3.602059v-24.013722c0-1.989537-1.612521-3.602058-3.602058-3.602058zm0 72.041166h-24.013722c-1.989537 0-3.602059 1.612522-3.602059 3.602059v24.013722c0 1.989537 1.612522 3.602058 3.602059 3.602058h24.013722c1.989537 0 3.602058-1.612521 3.602058-3.602058v-24.013722c0-1.989537-1.612521-3.602059-3.602058-3.602059z" fill-opacity=".5"/><path d="m279.759863 216.123499h-24.013722c-1.989537 0-3.602059 1.612522-3.602059 3.602058v24.013723c0 1.989536 1.612522 3.602058 3.602059 3.602058h24.013722c1.989537 0 3.602058-1.612522 3.602058-3.602058v-24.013723c0-1.989536-1.612521-3.602058-3.602058-3.602058z" fill-opacity=".8"/><path d="m279.759863 432.246998h-24.013722c-1.989537 0-3.602059 1.612522-3.602059 3.602059v24.013722c0 1.989537 1.612522 3.602058 3.602059 3.602058h24.013722c1.989537 0 3.602058-1.612521 3.602058-3.602058v-24.013722c0-1.989537-1.612521-3.602059-3.602058-3.602059z"/><path d="m279.759863 468.267581h-24.013722c-1.989537 0-3.602059 1.612522-3.602059 3.602059v24.013722c0 1.989537 1.612522 3.602058 3.602059 3.602058h24.013722c1.989537 0 3.602058-1.612521 3.602058-3.602058v-24.013722c0-1.989537-1.612521-3.602059-3.602058-3.602059z" fill-opacity=".3"/><path d="m279.759863 504.288165h-24.013722c-1.989537 0-3.602059 1.612521-3.602059 3.602058v24.013722c0 1.989537 1.612522 3.602058 3.602059 3.602058h24.013722c1.989537 0 3.602058-1.612521 3.602058-3.602058v-24.013722c0-1.989537-1.612521-3.602058-3.602058-3.602058z"/><path d="m279.759863 360.205832h-24.013722c-1.989537 0-3.602059 1.612521-3.602059 3.602058v24.013722c0 1.989537 1.612522 3.602059 3.602059 3.602059h24.013722c1.989537 0 3.602058-1.612522 3.602058-3.602059v-24.013722c0-1.989537-1.612521-3.602058-3.602058-3.602058z" fill-opacity=".5"/><path d="m279.759863 396.226415h-24.013722c-1.989537 0-3.602059 1.612522-3.602059 3.602058v24.013723c0 1.989536 1.612522 3.602058 3.602059 3.602058h24.013722c1.989537 0 3.602058-1.612522 3.602058-3.602058v-24.013723c0-1.989536-1.612521-3.602058-3.602058-3.602058zm0-288.164665h-24.013722c-1.989537 0-3.602059 1.612521-3.602059 3.602058v24.013722c0 1.989537 1.612522 3.602058 3.602059 3.602058h24.013722c1.989537 0 3.602058-1.612521 3.602058-3.602058v-24.013722c0-1.989537-1.612521-3.602058-3.602058-3.602058z"/><path d="m279.759863 72.0411664h-24.013722c-1.989537 0-3.602059 1.6125214-3.602059 3.6020583v24.0137221c0 1.9895372 1.612522 3.6020582 3.602059 3.6020582h24.013722c1.989537 0 3.602058-1.612521 3.602058-3.6020582v-24.0137221c0-1.9895369-1.612521-3.6020583-3.602058-3.6020583z" fill-opacity=".2"/><path d="m279.759863 36.0205832h-24.013722c-1.989537 0-3.602059 1.6127015-3.602059 3.6020583v24.0137221c0 1.9895369 1.612522 3.6020584 3.602059 3.6020584h24.013722c1.989537 0 3.602058-1.6125215 3.602058-3.6020584v-24.0137221c0-1.9893568-1.612521-3.6020583-3.602058-3.6020583z"/><path d="m1180.27444 0h-24.01372c-1.98714 0-3.60206 1.61269554-3.60206 3.60205832v24.01372208c0 1.9893568 1.61492 3.6020584 3.60206 3.6020584h24.01372c1.98714 0 3.60206-1.6127016 3.60206-3.6020584v-24.01372208c0-1.98936278-1.61492-3.60205832-3.60206-3.60205832z" fill-opacity=".5"/><path d="m1156.26072 391.423671h24.01372c1.98714 0 3.60206-1.612522 3.60206-3.602059v-24.013722c0-1.989537-1.61492-3.602058-3.60206-3.602058h-24.01372c-1.98714 0-3.60206 1.612521-3.60206 3.602058v24.013722c0 1.989537 1.61492 3.602059 3.60206 3.602059zm0 72.041166h24.01372c1.98714 0 3.60206-1.612521 3.60206-3.602058v-24.013722c0-1.989537-1.61492-3.602059-3.60206-3.602059h-24.01372c-1.98714 0-3.60206 1.612522-3.60206 3.602059v24.013722c0 1.989537 1.61492 3.602058 3.60206 3.602058z"/><path d="m1156.26072 499.48542h24.01372c1.98714 0 3.60206-1.612521 3.60206-3.602058v-24.013722c0-1.989537-1.61492-3.602059-3.60206-3.602059h-24.01372c-1.98714 0-3.60206 1.612522-3.60206 3.602059v24.013722c0 1.989537 1.61492 3.602058 3.60206 3.602058zm0-72.041166h24.01372c1.98714 0 3.60206-1.612522 3.60206-3.602058v-24.013723c0-1.989536-1.61492-3.602058-3.60206-3.602058h-24.01372c-1.98714 0-3.60206 1.612522-3.60206 3.602058v24.013723c0 1.989536 1.61492 3.602058 3.60206 3.602058z" fill-opacity=".5"/><path d="m1156.26072 355.403087h24.01372c1.98714 0 3.60206-1.612521 3.60206-3.602058v-24.013722c0-1.989537-1.61492-3.602058-3.60206-3.602058h-24.01372c-1.98714 0-3.60206 1.612521-3.60206 3.602058v24.013722c0 1.989537 1.61492 3.602058 3.60206 3.602058zm0-108.061749h24.01372c1.98714 0 3.60206-1.612522 3.60206-3.602058v-24.013723c0-1.989536-1.61492-3.602058-3.60206-3.602058h-24.01372c-1.98714 0-3.60206 1.612522-3.60206 3.602058v24.013723c0 1.989536 1.61492 3.602058 3.60206 3.602058zm0-36.020583h24.01372c1.98714 0 3.60206-1.612522 3.60206-3.602059v-24.013722c0-1.989537-1.61492-3.602058-3.60206-3.602058h-24.01372c-1.98714 0-3.60206 1.612521-3.60206 3.602058v24.013722c0 1.989537 1.61492 3.602059 3.60206 3.602059z"/><path d="m1156.26072 175.300172h24.01372c1.98714 0 3.60206-1.612522 3.60206-3.602059v-24.013722c0-1.989537-1.61492-3.602058-3.60206-3.602058h-24.01372c-1.98714 0-3.60206 1.612521-3.60206 3.602058v24.013722c0 1.989537 1.61492 3.602059 3.60206 3.602059z" fill-opacity=".5"/><path d="m1156.26072 139.279588h24.01372c1.98714 0 3.60206-1.612521 3.60206-3.602058v-24.013722c0-1.989537-1.61492-3.602058-3.60206-3.602058h-24.01372c-1.98714 0-3.60206 1.612521-3.60206 3.602058v24.013722c0 1.989537 1.61492 3.602058 3.60206 3.602058z"/><path d="m1180.27444 72.0411664h-24.01372c-1.98714 0-3.60206 1.6125214-3.60206 3.6020583v24.0137221c0 1.9895372 1.61492 3.6020582 3.60206 3.6020582h24.01372c1.98714 0 3.60206-1.612521 3.60206-3.6020582v-24.0137221c0-1.9895369-1.61492-3.6020583-3.60206-3.6020583z" fill-opacity=".3"/><path d="m219.725557 211.320755h24.013723c1.989536 0 3.602058-1.612522 3.602058-3.602059v-24.013722c0-1.989537-1.612522-3.602058-3.602058-3.602058h-24.013723c-1.989536 0-3.602058 1.612521-3.602058 3.602058v24.013722c0 1.989537 1.612522 3.602059 3.602058 3.602059z" fill-opacity=".5"/><path d="m219.725557 67.238422h24.013723c1.989536 0 3.602058-1.6125215 3.602058-3.6020584v-24.0137221c0-1.9893568-1.612522-3.6020583-3.602058-3.6020583h-24.013723c-1.989536 0-3.602058 1.6127015-3.602058 3.6020583v24.0137221c0 1.9895369 1.612522 3.6020584 3.602058 3.6020584z" fill-opacity=".3"/><path d="m219.725557 31.2178388h24.013723c1.989536 0 3.602058-1.6127016 3.602058-3.6020584v-24.01372208c0-1.98936278-1.612522-3.60205832-3.602058-3.60205832h-24.013723c-1.989536 0-3.602058 1.61270154-3.602058 3.60205832v24.01372208c0 1.9893568 1.612522 3.6020584 3.602058 3.6020584z"/><path d="m219.725557 139.279588h24.013723c1.989536 0 3.602058-1.612521 3.602058-3.602058v-24.013722c0-1.989537-1.612522-3.602058-3.602058-3.602058h-24.013723c-1.989536 0-3.602058 1.612521-3.602058 3.602058v24.013722c0 1.989537 1.612522 3.602058 3.602058 3.602058z" fill-opacity=".5"/><path d="m219.725557 103.259005h24.013723c1.989536 0 3.602058-1.612521 3.602058-3.6020582v-24.0137221c0-1.9895369-1.612522-3.6020583-3.602058-3.6020583h-24.013723c-1.989536 0-3.602058 1.6125214-3.602058 3.6020583v24.0137221c0 1.9895372 1.612522 3.6020582 3.602058 3.6020582z"/><path d="m219.725557 319.382504h24.013723c1.989536 0 3.602058-1.612521 3.602058-3.602058v-24.013722c0-1.989537-1.612522-3.602058-3.602058-3.602058h-24.013723c-1.989536 0-3.602058 1.612521-3.602058 3.602058v24.013722c0 1.989537 1.612522 3.602058 3.602058 3.602058zm0-36.020583h24.013723c1.989536 0 3.602058-1.612521 3.602058-3.602058v-24.013722c0-1.989537-1.612522-3.602059-3.602058-3.602059h-24.013723c-1.989536 0-3.602058 1.612522-3.602058 3.602059v24.013722c0 1.989537 1.612522 3.602058 3.602058 3.602058z" fill-opacity=".5"/><path d="m219.725557 391.423671h24.013723c1.989536 0 3.602058-1.612522 3.602058-3.602059v-24.013722c0-1.989537-1.612522-3.602058-3.602058-3.602058h-24.013723c-1.989536 0-3.602058 1.612521-3.602058 3.602058v24.013722c0 1.989537 1.612522 3.602059 3.602058 3.602059z" fill-opacity=".2"/><path d="m219.725557 355.403087h24.013723c1.989536 0 3.602058-1.612521 3.602058-3.602058v-24.013722c0-1.989537-1.612522-3.602058-3.602058-3.602058h-24.013723c-1.989536 0-3.602058 1.612521-3.602058 3.602058v24.013722c0 1.989537 1.612522 3.602058 3.602058 3.602058zm0 72.041167h24.013723c1.989536 0 3.602058-1.612522 3.602058-3.602058v-24.013723c0-1.989536-1.612522-3.602058-3.602058-3.602058h-24.013723c-1.989536 0-3.602058 1.612522-3.602058 3.602058v24.013723c0 1.989536 1.612522 3.602058 3.602058 3.602058z"/><path d="m219.725557 463.464837h24.013723c1.989536 0 3.602058-1.612521 3.602058-3.602058v-24.013722c0-1.989537-1.612522-3.602059-3.602058-3.602059h-24.013723c-1.989536 0-3.602058 1.612522-3.602058 3.602059v24.013722c0 1.989537 1.612522 3.602058 3.602058 3.602058zm972.555743-144.082333h24.01373c1.98713 0 3.60205-1.612521 3.60205-3.602058v-24.013722c0-1.989537-1.61492-3.602058-3.60205-3.602058h-24.01373c-1.98713 0-3.60205 1.612521-3.60205 3.602058v24.013722c0 1.989537 1.61492 3.602058 3.60205 3.602058z" fill-opacity=".3"/><path d="m1216.29503 72.0411664h-24.01373c-1.98713 0-3.60205 1.6125214-3.60205 3.6020583v24.0137221c0 1.9895372 1.61492 3.6020582 3.60205 3.6020582h24.01373c1.98713 0 3.60205-1.612521 3.60205-3.6020582v-24.0137221c0-1.9895369-1.61492-3.6020583-3.60205-3.6020583zm-24.01373 67.2384216h24.01373c1.98713 0 3.60205-1.612521 3.60205-3.602058v-24.013722c0-1.989537-1.61492-3.602058-3.60205-3.602058h-24.01373c-1.98713 0-3.60205 1.612521-3.60205 3.602058v24.013722c0 1.989537 1.61492 3.602058 3.60205 3.602058z" fill-opacity=".5"/><path d="m1216.29503 36.0205832h-24.01373c-1.98713 0-3.60205 1.6127015-3.60205 3.6020583v24.0137221c0 1.9895369 1.61492 3.6020584 3.60205 3.6020584h24.01373c1.98713 0 3.60205-1.6125215 3.60205-3.6020584v-24.0137221c0-1.9893568-1.61492-3.6020583-3.60205-3.6020583z"/><path d="m1192.2813 175.300172h24.01373c1.98713 0 3.60205-1.612522 3.60205-3.602059v-24.013722c0-1.989537-1.61492-3.602058-3.60205-3.602058h-24.01373c-1.98713 0-3.60205 1.612521-3.60205 3.602058v24.013722c0 1.989537 1.61492 3.602059 3.60205 3.602059z" fill-opacity=".7"/><path d="m1192.2813 211.320755h24.01373c1.98713 0 3.60205-1.612522 3.60205-3.602059v-24.013722c0-1.989537-1.61492-3.602058-3.60205-3.602058h-24.01373c-1.98713 0-3.60205 1.612521-3.60205 3.602058v24.013722c0 1.989537 1.61492 3.602059 3.60205 3.602059z" fill-opacity=".2"/><path d="m1192.2813 463.464837h24.01373c1.98713 0 3.60205-1.612521 3.60205-3.602058v-24.013722c0-1.989537-1.61492-3.602059-3.60205-3.602059h-24.01373c-1.98713 0-3.60205 1.612522-3.60205 3.602059v24.013722c0 1.989537 1.61492 3.602058 3.60205 3.602058zm0 72.041166h24.01373c1.98713 0 3.60205-1.612521 3.60205-3.602058v-24.013722c0-1.989537-1.61492-3.602058-3.60205-3.602058h-24.01373c-1.98713 0-3.60205 1.612521-3.60205 3.602058v24.013722c0 1.989537 1.61492 3.602058 3.60205 3.602058z"/><path d="m1192.2813 499.48542h24.01373c1.98713 0 3.60205-1.612521 3.60205-3.602058v-24.013722c0-1.989537-1.61492-3.602059-3.60205-3.602059h-24.01373c-1.98713 0-3.60205 1.612522-3.60205 3.602059v24.013722c0 1.989537 1.61492 3.602058 3.60205 3.602058z" fill-opacity=".5"/><path d="m1192.2813 391.423671h24.01373c1.98713 0 3.60205-1.612522 3.60205-3.602059v-24.013722c0-1.989537-1.61492-3.602058-3.60205-3.602058h-24.01373c-1.98713 0-3.60205 1.612521-3.60205 3.602058v24.013722c0 1.989537 1.61492 3.602059 3.60205 3.602059z"/><path d="m183.704974 427.444254h24.013722c1.989537 0 3.602059-1.612522 3.602059-3.602058v-24.013723c0-1.989536-1.612522-3.602058-3.602059-3.602058h-24.013722c-1.989537 0-3.602058 1.612522-3.602058 3.602058v24.013723c0 1.989536 1.612521 3.602058 3.602058 3.602058z" fill-opacity=".6"/><path d="m183.704974 355.403087h24.013722c1.989537 0 3.602059-1.612521 3.602059-3.602058v-24.013722c0-1.989537-1.612522-3.602058-3.602059-3.602058h-24.013722c-1.989537 0-3.602058 1.612521-3.602058 3.602058v24.013722c0 1.989537 1.612521 3.602058 3.602058 3.602058z"/><path d="m183.704974 247.341338h24.013722c1.989537 0 3.602059-1.612522 3.602059-3.602058v-24.013723c0-1.989536-1.612522-3.602058-3.602059-3.602058h-24.013722c-1.989537 0-3.602058 1.612522-3.602058 3.602058v24.013723c0 1.989536 1.612521 3.602058 3.602058 3.602058zm0-36.020583h24.013722c1.989537 0 3.602059-1.612522 3.602059-3.602059v-24.013722c0-1.989537-1.612522-3.602058-3.602059-3.602058h-24.013722c-1.989537 0-3.602058 1.612521-3.602058 3.602058v24.013722c0 1.989537 1.612521 3.602059 3.602058 3.602059z" fill-opacity=".5"/><path d="m183.704974 175.300172h24.013722c1.989537 0 3.602059-1.612522 3.602059-3.602059v-24.013722c0-1.989537-1.612522-3.602058-3.602059-3.602058h-24.013722c-1.989537 0-3.602058 1.612521-3.602058 3.602058v24.013722c0 1.989537 1.612521 3.602059 3.602058 3.602059z"/><path d="m207.718696 108.06175h-24.013722c-1.989537 0-3.602058 1.612521-3.602058 3.602058v24.013722c0 1.989537 1.612521 3.602058 3.602058 3.602058h24.013722c1.989537 0 3.602059-1.612521 3.602059-3.602058v-24.013722c0-1.989537-1.612522-3.602058-3.602059-3.602058z" fill-opacity=".7"/><path d="m1228.30189 139.279588h24.01372c1.98713 0 3.60206-1.612521 3.60206-3.602058v-24.013722c0-1.989537-1.61493-3.602058-3.60206-3.602058h-24.01372c-1.98714 0-3.60206 1.612521-3.60206 3.602058v24.013722c0 1.989537 1.61492 3.602058 3.60206 3.602058z"/><path d="m1252.31561 72.0411664h-24.01372c-1.98714 0-3.60206 1.6125214-3.60206 3.6020583v24.0137221c0 1.9895372 1.61492 3.6020582 3.60206 3.6020582h24.01372c1.98713 0 3.60206-1.612521 3.60206-3.6020582v-24.0137221c0-1.9895369-1.61493-3.6020583-3.60206-3.6020583z" fill-opacity=".3"/><path d="m1228.30189 175.300172h24.01372c1.98713 0 3.60206-1.612522 3.60206-3.602059v-24.013722c0-1.989537-1.61493-3.602058-3.60206-3.602058h-24.01372c-1.98714 0-3.60206 1.612521-3.60206 3.602058v24.013722c0 1.989537 1.61492 3.602059 3.60206 3.602059zm0 144.082332h24.01372c1.98713 0 3.60206-1.612521 3.60206-3.602058v-24.013722c0-1.989537-1.61493-3.602058-3.60206-3.602058h-24.01372c-1.98714 0-3.60206 1.612521-3.60206 3.602058v24.013722c0 1.989537 1.61492 3.602058 3.60206 3.602058zm0-36.020583h24.01372c1.98713 0 3.60206-1.612521 3.60206-3.602058v-24.013722c0-1.989537-1.61493-3.602059-3.60206-3.602059h-24.01372c-1.98714 0-3.60206 1.612522-3.60206 3.602059v24.013722c0 1.989537 1.61492 3.602058 3.60206 3.602058z"/><path d="m1228.30189 247.341338h24.01372c1.98713 0 3.60206-1.612522 3.60206-3.602058v-24.013723c0-1.989536-1.61493-3.602058-3.60206-3.602058h-24.01372c-1.98714 0-3.60206 1.612522-3.60206 3.602058v24.013723c0 1.989536 1.61492 3.602058 3.60206 3.602058zm0 252.144082h24.01372c1.98713 0 3.60206-1.612521 3.60206-3.602058v-24.013722c0-1.989537-1.61493-3.602059-3.60206-3.602059h-24.01372c-1.98714 0-3.60206 1.612522-3.60206 3.602059v24.013722c0 1.989537 1.61492 3.602058 3.60206 3.602058z" fill-opacity=".5"/><path d="m1228.30189 463.464837h24.01372c1.98713 0 3.60206-1.612521 3.60206-3.602058v-24.013722c0-1.989537-1.61493-3.602059-3.60206-3.602059h-24.01372c-1.98714 0-3.60206 1.612522-3.60206 3.602059v24.013722c0 1.989537 1.61492 3.602058 3.60206 3.602058z" fill-opacity=".4"/><path d="m1228.30189 427.444254h24.01372c1.98713 0 3.60206-1.612522 3.60206-3.602058v-24.013723c0-1.989536-1.61493-3.602058-3.60206-3.602058h-24.01372c-1.98714 0-3.60206 1.612522-3.60206 3.602058v24.013723c0 1.989536 1.61492 3.602058 3.60206 3.602058zm-1080.617499-324.185249h24.013722c1.989537 0 3.602059-1.612521 3.602059-3.6020582v-24.0137221c0-1.9895369-1.612522-3.6020583-3.602059-3.6020583h-24.013722c-1.989537 0-3.602058 1.6125214-3.602058 3.6020583v24.0137221c0 1.9895372 1.612521 3.6020582 3.602058 3.6020582zm0 108.06175h24.013722c1.989537 0 3.602059-1.612522 3.602059-3.602059v-24.013722c0-1.989537-1.612522-3.602058-3.602059-3.602058h-24.013722c-1.989537 0-3.602058 1.612521-3.602058 3.602058v24.013722c0 1.989537 1.612521 3.602059 3.602058 3.602059z"/><path d="m147.684391 175.300172h24.013722c1.989537 0 3.602059-1.612522 3.602059-3.602059v-24.013722c0-1.989537-1.612522-3.602058-3.602059-3.602058h-24.013722c-1.989537 0-3.602058 1.612521-3.602058 3.602058v24.013722c0 1.989537 1.612521 3.602059 3.602058 3.602059z" fill-opacity=".5"/><path d="m147.684391 355.403087h24.013722c1.989537 0 3.602059-1.612521 3.602059-3.602058v-24.013722c0-1.989537-1.612522-3.602058-3.602059-3.602058h-24.013722c-1.989537 0-3.602058 1.612521-3.602058 3.602058v24.013722c0 1.989537 1.612521 3.602058 3.602058 3.602058zm0 36.020584h24.013722c1.989537 0 3.602059-1.612522 3.602059-3.602059v-24.013722c0-1.989537-1.612522-3.602058-3.602059-3.602058h-24.013722c-1.989537 0-3.602058 1.612521-3.602058 3.602058v24.013722c0 1.989537 1.612521 3.602059 3.602058 3.602059zm0-72.041167h24.013722c1.989537 0 3.602059-1.612521 3.602059-3.602058v-24.013722c0-1.989537-1.612522-3.602058-3.602059-3.602058h-24.013722c-1.989537 0-3.602058 1.612521-3.602058 3.602058v24.013722c0 1.989537 1.612521 3.602058 3.602058 3.602058zm1116.638079-144.082332h24.01372c1.98714 0 3.60206-1.612522 3.60206-3.602059v-24.013722c0-1.989537-1.61492-3.602058-3.60206-3.602058h-24.01372c-1.98714 0-3.60206 1.612521-3.60206 3.602058v24.013722c0 1.989537 1.61492 3.602059 3.60206 3.602059z"/><path d="m1264.32247 139.279588h24.01372c1.98714 0 3.60206-1.612521 3.60206-3.602058v-24.013722c0-1.989537-1.61492-3.602058-3.60206-3.602058h-24.01372c-1.98714 0-3.60206 1.612521-3.60206 3.602058v24.013722c0 1.989537 1.61492 3.602058 3.60206 3.602058z" fill-opacity=".5"/><path d="m1288.33619 72.0411664h-24.01372c-1.98714 0-3.60206 1.6125214-3.60206 3.6020583v24.0137221c0 1.9895372 1.61492 3.6020582 3.60206 3.6020582h24.01372c1.98714 0 3.60206-1.612521 3.60206-3.6020582v-24.0137221c0-1.9895369-1.61492-3.6020583-3.60206-3.6020583zm-24.01372 139.2795886h24.01372c1.98714 0 3.60206-1.612522 3.60206-3.602059v-24.013722c0-1.989537-1.61492-3.602058-3.60206-3.602058h-24.01372c-1.98714 0-3.60206 1.612521-3.60206 3.602058v24.013722c0 1.989537 1.61492 3.602059 3.60206 3.602059zm0 72.041166h24.01372c1.98714 0 3.60206-1.612521 3.60206-3.602058v-24.013722c0-1.989537-1.61492-3.602059-3.60206-3.602059h-24.01372c-1.98714 0-3.60206 1.612522-3.60206 3.602059v24.013722c0 1.989537 1.61492 3.602058 3.60206 3.602058z"/><path d="m1264.32247 355.403087h24.01372c1.98714 0 3.60206-1.612521 3.60206-3.602058v-24.013722c0-1.989537-1.61492-3.602058-3.60206-3.602058h-24.01372c-1.98714 0-3.60206 1.612521-3.60206 3.602058v24.013722c0 1.989537 1.61492 3.602058 3.60206 3.602058z" fill-opacity=".8"/><path d="m1264.32247 319.382504h24.01372c1.98714 0 3.60206-1.612521 3.60206-3.602058v-24.013722c0-1.989537-1.61492-3.602058-3.60206-3.602058h-24.01372c-1.98714 0-3.60206 1.612521-3.60206 3.602058v24.013722c0 1.989537 1.61492 3.602058 3.60206 3.602058zm-1152.658662-180.102916h24.013722c1.989537 0 3.602058-1.612521 3.602058-3.602058v-24.013722c0-1.989537-1.612521-3.602058-3.602058-3.602058h-24.013722c-1.989537 0-3.602058 1.612521-3.602058 3.602058v24.013722c0 1.989537 1.612521 3.602058 3.602058 3.602058z"/><path d="m111.663808 211.320755h24.013722c1.989537 0 3.602058-1.612522 3.602058-3.602059v-24.013722c0-1.989537-1.612521-3.602058-3.602058-3.602058h-24.013722c-1.989537 0-3.602058 1.612521-3.602058 3.602058v24.013722c0 1.989537 1.612521 3.602059 3.602058 3.602059z" fill-opacity=".3"/><path d="m111.663808 247.341338h24.013722c1.989537 0 3.602058-1.612522 3.602058-3.602058v-24.013723c0-1.989536-1.612521-3.602058-3.602058-3.602058h-24.013722c-1.989537 0-3.602058 1.612522-3.602058 3.602058v24.013723c0 1.989536 1.612521 3.602058 3.602058 3.602058z"/><path d="m111.663808 319.382504h24.013722c1.989537 0 3.602058-1.612521 3.602058-3.602058v-24.013722c0-1.989537-1.612521-3.602058-3.602058-3.602058h-24.013722c-1.989537 0-3.602058 1.612521-3.602058 3.602058v24.013722c0 1.989537 1.612521 3.602058 3.602058 3.602058z" fill-opacity=".5"/><path d="m111.663808 283.361921h24.013722c1.989537 0 3.602058-1.612521 3.602058-3.602058v-24.013722c0-1.989537-1.612521-3.602059-3.602058-3.602059h-24.013722c-1.989537 0-3.602058 1.612522-3.602058 3.602059v24.013722c0 1.989537 1.612521 3.602058 3.602058 3.602058z"/><path d="m111.663808 391.423671h24.013722c1.989537 0 3.602058-1.612522 3.602058-3.602059v-24.013722c0-1.989537-1.612521-3.602058-3.602058-3.602058h-24.013722c-1.989537 0-3.602058 1.612521-3.602058 3.602058v24.013722c0 1.989537 1.612521 3.602059 3.602058 3.602059z" fill-opacity=".2"/><path d="m111.663808 355.403087h24.013722c1.989537 0 3.602058-1.612521 3.602058-3.602058v-24.013722c0-1.989537-1.612521-3.602058-3.602058-3.602058h-24.013722c-1.989537 0-3.602058 1.612521-3.602058 3.602058v24.013722c0 1.989537 1.612521 3.602058 3.602058 3.602058zm1188.679242-216.123499h24.01373c1.98713 0 3.60205-1.612521 3.60205-3.602058v-24.013722c0-1.989537-1.61492-3.602058-3.60205-3.602058h-24.01373c-1.98713 0-3.60206 1.612521-3.60206 3.602058v24.013722c0 1.989537 1.61493 3.602058 3.60206 3.602058zm0 180.102916h24.01373c1.98713 0 3.60205-1.612521 3.60205-3.602058v-24.013722c0-1.989537-1.61492-3.602058-3.60205-3.602058h-24.01373c-1.98713 0-3.60206 1.612521-3.60206 3.602058v24.013722c0 1.989537 1.61493 3.602058 3.60206 3.602058zm0-36.020583h24.01373c1.98713 0 3.60205-1.612521 3.60205-3.602058v-24.013722c0-1.989537-1.61492-3.602059-3.60205-3.602059h-24.01373c-1.98713 0-3.60206 1.612522-3.60206 3.602059v24.013722c0 1.989537 1.61493 3.602058 3.60206 3.602058z"/><path d="m1300.34305 175.300172h24.01373c1.98713 0 3.60205-1.612522 3.60205-3.602059v-24.013722c0-1.989537-1.61492-3.602058-3.60205-3.602058h-24.01373c-1.98713 0-3.60206 1.612521-3.60206 3.602058v24.013722c0 1.989537 1.61493 3.602059 3.60206 3.602059z" fill-opacity=".7"/><path d="m1300.34305 247.341338h24.01373c1.98713 0 3.60205-1.612522 3.60205-3.602058v-24.013723c0-1.989536-1.61492-3.602058-3.60205-3.602058h-24.01373c-1.98713 0-3.60206 1.612522-3.60206 3.602058v24.013723c0 1.989536 1.61493 3.602058 3.60206 3.602058z"/><path d="m1300.34305 211.320755h24.01373c1.98713 0 3.60205-1.612522 3.60205-3.602059v-24.013722c0-1.989537-1.61492-3.602058-3.60205-3.602058h-24.01373c-1.98713 0-3.60206 1.612521-3.60206 3.602058v24.013722c0 1.989537 1.61493 3.602059 3.60206 3.602059z" fill-opacity=".3"/><path d="m75.6432247 247.341338h24.0137221c1.9895372 0 3.6020582-1.612522 3.6020582-3.602058v-24.013723c0-1.989536-1.612521-3.602058-3.6020582-3.602058h-24.0137221c-1.9895369 0-3.6020583 1.612522-3.6020583 3.602058v24.013723c0 1.989536 1.6125214 3.602058 3.6020583 3.602058zm1260.7204153-.600343h24.01372c1.98713 0 3.60206-1.612522 3.60206-3.602058v-24.013723c0-1.989536-1.61493-3.602058-3.60206-3.602058h-24.01372c-1.98714 0-3.60206 1.612522-3.60206 3.602058v24.013723c0 1.989536 1.61492 3.602058 3.60206 3.602058z"/><path d="m1336.36364 175.300172h24.01372c1.98713 0 3.60206-1.612522 3.60206-3.602059v-24.013722c0-1.989537-1.61493-3.602058-3.60206-3.602058h-24.01372c-1.98714 0-3.60206 1.612521-3.60206 3.602058v24.013722c0 1.989537 1.61492 3.602059 3.60206 3.602059z" fill-opacity=".5"/><path d="m39.6226415 247.341338h24.0137221c1.9895369 0 3.6020584-1.612522 3.6020584-3.602058v-24.013723c0-1.989536-1.6125215-3.602058-3.6020584-3.602058h-24.0137221c-1.9893568 0-3.6020583 1.612522-3.6020583 3.602058v24.013723c0 1.989536 1.6127015 3.602058 3.6020583 3.602058zm0 36.020583h24.0137221c1.9895369 0 3.6020584-1.612521 3.6020584-3.602058v-24.013722c0-1.989537-1.6125215-3.602059-3.6020584-3.602059h-24.0137221c-1.9893568 0-3.6020583 1.612522-3.6020583 3.602059v24.013722c0 1.989537 1.6127015 3.602058 3.6020583 3.602058zm0 36.020583h24.0137221c1.9895369 0 3.6020584-1.612521 3.6020584-3.602058v-24.013722c0-1.989537-1.6125215-3.602058-3.6020584-3.602058h-24.0137221c-1.9893568 0-3.6020583 1.612521-3.6020583 3.602058v24.013722c0 1.989537 1.6127015 3.602058 3.6020583 3.602058z"/><path d="m1372.38422 210.720412h24.01372c1.98714 0 3.60206-1.612522 3.60206-3.602059v-24.013722c0-1.989537-1.61492-3.602058-3.60206-3.602058h-24.01372c-1.98714 0-3.60206 1.612521-3.60206 3.602058v24.013722c0 1.989537 1.61492 3.602059 3.60206 3.602059z" fill-opacity=".2"/><path d="m1372.38422 246.740995h24.01372c1.98714 0 3.60206-1.612522 3.60206-3.602058v-24.013723c0-1.989536-1.61492-3.602058-3.60206-3.602058h-24.01372c-1.98714 0-3.60206 1.612522-3.60206 3.602058v24.013723c0 1.989536 1.61492 3.602058 3.60206 3.602058z"/><path d="m3.60205832 283.361921h24.01372208c1.9893568 0 3.6020584-1.612521 3.6020584-3.602058v-24.013722c0-1.989537-1.6127016-3.602059-3.6020584-3.602059h-24.01372208c-1.98936278 0-3.60205832 1.612522-3.60205832 3.602059v24.013722c0 1.989537 1.61269554 3.602058 3.60205832 3.602058z" fill-opacity=".3"/></g><g transform="translate(396 252)"><path d="m171.698113 144.06175h-24.013722c-1.989537 0-3.602058 1.612521-3.602058 3.602058v24.013722c0 1.989537 1.612521 3.602058 3.602058 3.602058h24.013722c1.989537 0 3.602059-1.612521 3.602059-3.602058v-24.013722c0-1.989537-1.612522-3.602058-3.602059-3.602058zm-36.020583-72.0205836h-24.013722c-1.989537 0-3.602058 1.6125214-3.602058 3.6020583v24.0137221c0 1.9895372 1.612521 3.6020582 3.602058 3.6020582h24.013722c1.989537 0 3.602058-1.612521 3.602058-3.6020582v-24.0137221c0-1.9895369-1.612521-3.6020583-3.602058-3.6020583z" fill="#60185d"/><path d="m135.67753 144.082333h-24.013722c-1.989537 0-3.602058 1.612521-3.602058 3.602058v24.013722c0 1.989537 1.612521 3.602059 3.602058 3.602059h24.013722c1.989537 0 3.602058-1.612522 3.602058-3.602059v-24.013722c0-1.989537-1.612521-3.602058-3.602058-3.602058z" fill="#d74aa2"/><path d="m63.67753 144.082333h-24.0137221c-1.9895369 0-3.6020583 1.612521-3.6020583 3.602058v24.013722c0 1.989537 1.6125214 3.602059 3.6020583 3.602059h24.0137221c1.9895369 0 3.6020583-1.612522 3.6020583-3.602059v-24.013722c0-1.989537-1.6125214-3.602058-3.6020583-3.602058zm36 0h-24.0137221c-1.9895369 0-3.6020583 1.612521-3.6020583 3.602058v24.013722c0 1.989537 1.6125214 3.602059 3.6020583 3.602059h24.0137221c1.989537 0 3.602058-1.612522 3.602058-3.602059v-24.013722c0-1.989537-1.612521-3.602058-3.602058-3.602058z" fill="#60185d"/><path d="m135.67753 36.0205832h-24.013722c-1.989537 0-3.602058 1.6125214-3.602058 3.6020583v24.0137221c0 1.9895369 1.612521 3.6020584 3.602058 3.6020584h24.013722c1.989537 0 3.602058-1.6125215 3.602058-3.6020584v-24.0137221c0-1.9895369-1.612521-3.6020583-3.602058-3.6020583z" fill="#341946"/><path d="m135.67753 108.06175h-24.013722c-1.989537 0-3.602058 1.612521-3.602058 3.602058v24.013722c0 1.989537 1.612521 3.602058 3.602058 3.602058h24.013722c1.989537 0 3.602058-1.612521 3.602058-3.602058v-24.013722c0-1.989537-1.612521-3.602058-3.602058-3.602058z" fill="#d74aa2"/><path d="m135.656947 179.06175h-24.013722c-1.989537 0-3.602059 1.612521-3.602059 3.602058v24.013722c0 1.989537 1.612522 3.602058 3.602059 3.602058h24.013722c1.989537 0 3.602058-1.612521 3.602058-3.602058v-24.013722c0-1.989537-1.612521-3.602058-3.602058-3.602058z" fill="#321643"/><path d="m135.656947 214.06175h-24.013722c-1.989537 0-3.602059 1.612521-3.602059 3.602058v24.013722c0 1.989537 1.612522 3.602058 3.602059 3.602058h24.013722c1.989537 0 3.602058-1.612521 3.602058-3.602058v-24.013722c0-1.989537-1.612521-3.602058-3.602058-3.602058zm0-214.06175h-24.013722c-1.989537 0-3.602059 1.61252144-3.602059 3.60205832v24.01372208c0 1.9895369 1.612522 3.6020584 3.602059 3.6020584h24.013722c1.989537 0 3.602058-1.6125215 3.602058-3.6020584v-24.01372208c0-1.98953688-1.612521-3.60205832-3.602058-3.60205832z" fill="#d74aa2"/><path d="m63.6363636 72.0411664h-24.0137221c-1.9895369 0-3.6020583 1.6125214-3.6020583 3.6020583v24.0137221c0 1.9895372 1.6125214 3.6020582 3.6020583 3.6020582h24.0137221c1.9895369 0 3.6020584-1.612521 3.6020584-3.6020582v-24.0137221c0-1.9895369-1.6125215-3.6020583-3.6020584-3.6020583z" fill="#b03b84"/><path d="m99.6363636 35.0205832h-24.0137221c-1.9895369 0-3.6020583 1.6125214-3.6020583 3.6020583v24.0137221c0 1.9895369 1.6125214 3.6020584 3.6020583 3.6020584h24.0137221c1.9895374 0 3.6020584-1.6125215 3.6020584-3.6020584v-24.0137221c0-1.9895369-1.612521-3.6020583-3.6020584-3.6020583zm-96.03430528 140.2590048h24.01372208c1.9895369 0 3.6020584-1.612521 3.6020584-3.602058v-24.013722c0-1.989537-1.6125215-3.602058-3.6020584-3.602058h-24.01372208c-1.98953688 0-3.60205832 1.612521-3.60205832 3.602058v24.013722c0 1.989537 1.61252144 3.602058 3.60205832 3.602058zm0-36h24.01372208c1.9895369 0 3.6020584-1.612521 3.6020584-3.602058v-24.013722c0-1.989537-1.6125215-3.602058-3.6020584-3.602058h-24.01372208c-1.98953688 0-3.60205832 1.612521-3.60205832 3.602058v24.013722c0 1.989537 1.61252144 3.602058 3.60205832 3.602058z" fill="#321643"/><g transform="translate(216)"><path d="m171.698113 144.06175h-24.013722c-1.989537 0-3.602058 1.612521-3.602058 3.602058v24.013722c0 1.989537 1.612521 3.602058 3.602058 3.602058h24.013722c1.989537 0 3.602059-1.612521 3.602059-3.602058v-24.013722c0-1.989537-1.612522-3.602058-3.602059-3.602058zm-144.020583-72.0205836h-24.01372211c-1.98953688 0-3.60205832 1.6125214-3.60205832 3.6020583v24.0137221c0 1.9895372 1.61252144 3.6020582 3.60205832 3.6020582h24.01372211c1.9895369 0 3.6020583-1.612521 3.6020583-3.6020582v-24.0137221c0-1.9895369-1.6125214-3.6020583-3.6020583-3.6020583z" fill="#b03b84"/><path d="m171.67753 180.082333h-24.013722c-1.989537 0-3.602058 1.612521-3.602058 3.602058v24.013722c0 1.989537 1.612521 3.602059 3.602058 3.602059h24.013722c1.989537 0 3.602058-1.612522 3.602058-3.602059v-24.013722c0-1.989537-1.612521-3.602058-3.602058-3.602058z" fill="#60185d"/><path d="m63.67753 214.082333h-24.0137221c-1.9895369 0-3.6020583 1.612521-3.6020583 3.602058v24.013722c0 1.989537 1.6125214 3.602059 3.6020583 3.602059h24.0137221c1.9895369 0 3.6020583-1.612522 3.6020583-3.602059v-24.013722c0-1.989537-1.6125214-3.602058-3.6020583-3.602058z" fill="#d74aa2"/><path d="m99.67753 214.082333h-24.0137221c-1.9895369 0-3.6020583 1.612521-3.6020583 3.602058v24.013722c0 1.989537 1.6125214 3.602059 3.6020583 3.602059h24.0137221c1.989537 0 3.602058-1.612522 3.602058-3.602059v-24.013722c0-1.989537-1.612521-3.602058-3.602058-3.602058z" fill="#60185d"/><path d="m27.67753 36.0205832h-24.01372211c-1.98953688 0-3.60205832 1.6125214-3.60205832 3.6020583v24.0137221c0 1.9895369 1.61252144 3.6020584 3.60205832 3.6020584h24.01372211c1.9895369 0 3.6020583-1.6125215 3.6020583-3.6020584v-24.0137221c0-1.9895369-1.6125214-3.6020583-3.6020583-3.6020583z" fill="#341945"/><path d="m171.67753 108.06175h-24.013722c-1.989537 0-3.602058 1.612521-3.602058 3.602058v24.013722c0 1.989537 1.612521 3.602058 3.602058 3.602058h24.013722c1.989537 0 3.602058-1.612521 3.602058-3.602058v-24.013722c0-1.989537-1.612521-3.602058-3.602058-3.602058z" fill="#60185d"/><path d="m171.67753 72.0617496h-24.013722c-1.989537 0-3.602058 1.6125214-3.602058 3.6020583v24.0137221c0 1.989537 1.612521 3.602058 3.602058 3.602058h24.013722c1.989537 0 3.602058-1.612521 3.602058-3.602058v-24.0137221c0-1.9895369-1.612521-3.6020583-3.602058-3.6020583z" fill="#341945"/><path d="m171.67753 36.0617496h-24.013722c-1.989537 0-3.602058 1.6125214-3.602058 3.6020583v24.0137221c0 1.9895369 1.612521 3.6020583 3.602058 3.6020583h24.013722c1.989537 0 3.602058-1.6125214 3.602058-3.6020583v-24.0137221c0-1.9895369-1.612521-3.6020583-3.602058-3.6020583z" fill="#d74aa2"/><path d="m27.6569468 179.06175h-24.0137221c-1.98953688 0-3.60205832 1.612521-3.60205832 3.602058v24.013722c0 1.989537 1.61252144 3.602058 3.60205832 3.602058h24.0137221c1.9895369 0 3.6020583-1.612521 3.6020583-3.602058v-24.013722c0-1.989537-1.6125214-3.602058-3.6020583-3.602058z" fill="#341946"/><path d="m135.656947 214.06175h-24.013722c-1.989537 0-3.602059 1.612521-3.602059 3.602058v24.013722c0 1.989537 1.612522 3.602058 3.602059 3.602058h24.013722c1.989537 0 3.602058-1.612521 3.602058-3.602058v-24.013722c0-1.989537-1.612521-3.602058-3.602058-3.602058zm0-214.06175h-24.013722c-1.989537 0-3.602059 1.61252144-3.602059 3.60205832v24.01372208c0 1.9895369 1.612522 3.6020584 3.602059 3.6020584h24.013722c1.989537 0 3.602058-1.6125215 3.602058-3.6020584v-24.01372208c0-1.98953688-1.612521-3.60205832-3.602058-3.60205832z" fill="#341945"/><path d="m63.6363636.04116638h-24.0137221c-1.9895369 0-3.6020583 1.61252144-3.6020583 3.60205832v24.0137221c0 1.9895369 1.6125214 3.6020583 3.6020583 3.6020583h24.0137221c1.9895369 0 3.6020584-1.6125214 3.6020584-3.6020583v-24.0137221c0-1.98953688-1.6125215-3.60205832-3.6020584-3.60205832z" fill="#60185d"/><path d="m99.6363636.02058319h-24.0137221c-1.9895369 0-3.6020583 1.61252144-3.6020583 3.60205832v24.01372209c0 1.9895369 1.6125214 3.6020584 3.6020583 3.6020584h24.0137221c1.9895374 0 3.6020584-1.6125215 3.6020584-3.6020584v-24.01372209c0-1.98953688-1.612521-3.60205832-3.6020584-3.60205832z" fill="#341945"/><path d="m3.60205832 175.279588h24.01372208c1.9895369 0 3.6020584-1.612521 3.6020584-3.602058v-24.013722c0-1.989537-1.6125215-3.602058-3.6020584-3.602058h-24.01372208c-1.98953688 0-3.60205832 1.612521-3.60205832 3.602058v24.013722c0 1.989537 1.61252144 3.602058 3.60205832 3.602058z" fill="#d74aa2"/><path d="m3.60205832 139.279588h24.01372208c1.9895369 0 3.6020584-1.612521 3.6020584-3.602058v-24.013722c0-1.989537-1.6125215-3.602058-3.6020584-3.602058h-24.01372208c-1.98953688 0-3.60205832 1.612521-3.60205832 3.602058v24.013722c0 1.989537 1.61252144 3.602058 3.60205832 3.602058z" fill="#b03b84"/></g><g transform="translate(432)"><path d="m171.698113 144.06175h-24.013722c-1.989537 0-3.602058 1.612521-3.602058 3.602058v24.013722c0 1.989537 1.612521 3.602058 3.602058 3.602058h24.013722c1.989537 0 3.602059-1.612521 3.602059-3.602058v-24.013722c0-1.989537-1.612522-3.602058-3.602059-3.602058z" fill="#d74aa2"/><path d="m135.67753 72.0411664h-24.013722c-1.989537 0-3.602058 1.6125214-3.602058 3.6020583v24.0137221c0 1.9895372 1.612521 3.6020582 3.602058 3.6020582h24.013722c1.989537 0 3.602058-1.612521 3.602058-3.6020582v-24.0137221c0-1.9895369-1.612521-3.6020583-3.602058-3.6020583z" fill="#b03b84"/><path d="m135.67753 144.082333h-24.013722c-1.989537 0-3.602058 1.612521-3.602058 3.602058v24.013722c0 1.989537 1.612521 3.602059 3.602058 3.602059h24.013722c1.989537 0 3.602058-1.612522 3.602058-3.602059v-24.013722c0-1.989537-1.612521-3.602058-3.602058-3.602058z" fill="#341945"/><path d="m63.67753 144.082333h-24.0137221c-1.9895369 0-3.6020583 1.612521-3.6020583 3.602058v24.013722c0 1.989537 1.6125214 3.602059 3.6020583 3.602059h24.0137221c1.9895369 0 3.6020583-1.612522 3.6020583-3.602059v-24.013722c0-1.989537-1.6125214-3.602058-3.6020583-3.602058zm36 0h-24.0137221c-1.9895369 0-3.6020583 1.612521-3.6020583 3.602058v24.013722c0 1.989537 1.6125214 3.602059 3.6020583 3.602059h24.0137221c1.989537 0 3.602058-1.612522 3.602058-3.602059v-24.013722c0-1.989537-1.612521-3.602058-3.602058-3.602058z" fill="#b03b84"/><path d="m135.67753 36.0205832h-24.013722c-1.989537 0-3.602058 1.6125214-3.602058 3.6020583v24.0137221c0 1.9895369 1.612521 3.6020584 3.602058 3.6020584h24.013722c1.989537 0 3.602058-1.6125215 3.602058-3.6020584v-24.0137221c0-1.9895369-1.612521-3.6020583-3.602058-3.6020583zm0 72.0411668h-24.013722c-1.989537 0-3.602058 1.612521-3.602058 3.602058v24.013722c0 1.989537 1.612521 3.602058 3.602058 3.602058h24.013722c1.989537 0 3.602058-1.612521 3.602058-3.602058v-24.013722c0-1.989537-1.612521-3.602058-3.602058-3.602058z" fill="#60185d"/><path d="m135.656947 179.06175h-24.013722c-1.989537 0-3.602059 1.612521-3.602059 3.602058v24.013722c0 1.989537 1.612522 3.602058 3.602059 3.602058h24.013722c1.989537 0 3.602058-1.612521 3.602058-3.602058v-24.013722c0-1.989537-1.612521-3.602058-3.602058-3.602058z" fill="#341945"/><path d="m135.656947 214.06175h-24.013722c-1.989537 0-3.602059 1.612521-3.602059 3.602058v24.013722c0 1.989537 1.612522 3.602058 3.602059 3.602058h24.013722c1.989537 0 3.602058-1.612521 3.602058-3.602058v-24.013722c0-1.989537-1.612521-3.602058-3.602058-3.602058z" fill="#60185d"/><path d="m135.656947 0h-24.013722c-1.989537 0-3.602059 1.61252144-3.602059 3.60205832v24.01372208c0 1.9895369 1.612522 3.6020584 3.602059 3.6020584h24.013722c1.989537 0 3.602058-1.6125215 3.602058-3.6020584v-24.01372208c0-1.98953688-1.612521-3.60205832-3.602058-3.60205832z" fill="#d74aa2"/><path d="m63.6363636 72.0411664h-24.0137221c-1.9895369 0-3.6020583 1.6125214-3.6020583 3.6020583v24.0137221c0 1.9895372 1.6125214 3.6020582 3.6020583 3.6020582h24.0137221c1.9895369 0 3.6020584-1.612521 3.6020584-3.6020582v-24.0137221c0-1.9895369-1.6125215-3.6020583-3.6020584-3.6020583z" fill="#60185d"/><path d="m99.6363636 35.0205832h-24.0137221c-1.9895369 0-3.6020583 1.6125214-3.6020583 3.6020583v24.0137221c0 1.9895369 1.6125214 3.6020584 3.6020583 3.6020584h24.0137221c1.9895374 0 3.6020584-1.6125215 3.6020584-3.6020584v-24.0137221c0-1.9895369-1.612521-3.6020583-3.6020584-3.6020583z" fill="#d74aa2"/><path d="m3.60205832 175.279588h24.01372208c1.9895369 0 3.6020584-1.612521 3.6020584-3.602058v-24.013722c0-1.989537-1.6125215-3.602058-3.6020584-3.602058h-24.01372208c-1.98953688 0-3.60205832 1.612521-3.60205832 3.602058v24.013722c0 1.989537 1.61252144 3.602058 3.60205832 3.602058z" fill="#60185d"/><path d="m3.60205832 139.279588h24.01372208c1.9895369 0 3.6020584-1.612521 3.6020584-3.602058v-24.013722c0-1.989537-1.6125215-3.602058-3.6020584-3.602058h-24.01372208c-1.98953688 0-3.60205832 1.612521-3.60205832 3.602058v24.013722c0 1.989537 1.61252144 3.602058 3.60205832 3.602058z" fill="#341946"/></g></g></g></svg>