<svg height="500" viewBox="0 0 500 500" width="500" xmlns="http://www.w3.org/2000/svg" xmlns:xlink="http://www.w3.org/1999/xlink"><linearGradient id="a" x1="0%" x2="100%" y1="0%" y2="100%"><stop offset="0" stop-color="#c562f5"/><stop offset="1" stop-color="#f68084"/></linearGradient><g fill="none" fill-rule="evenodd" transform="translate(-6 -6)"><path d="m0 0h512v512h-512z"/><path d="m249.976979 0c-138.033703 0-249.976979 114.760513-249.976979 256.33467 0 113.249885 71.625894 209.316377 170.969029 243.21109 12.508057 2.360356 17.066208-5.554704 17.066208-12.35253 0-6.073983-.214862-22.203083-.33764-43.587909-69.53866 15.483936-84.210688-34.366784-84.210688-34.366784-11.3723567-29.614601-27.7632834-37.49819-27.7632834-37.49819-22.6986709-15.893065 1.7188987-15.578351 1.7188987-15.578351 25.0928517 1.809607 38.2915377 26.420253 38.2915377 26.420253 22.299641 39.166175 58.519291 27.852202 72.761595 21.290412 2.271402-16.553964 8.732619-27.852202 15.869118-34.256635-55.511219-6.467376-113.8770375-28.465894-113.8770375-126.688178 0-27.978088 9.7455415-50.873542 25.7374385-68.780777-2.578348-6.483111-11.157494-32.557178 2.455569-67.836633 0 0 20.979773-6.89224 68.7406 26.278631 19.936155-5.696326 41.330305-8.528754 62.586329-8.638903 21.240676.110149 42.619478 2.942577 62.586328 8.638903 47.730133-33.170871 68.679211-26.278631 68.679211-26.278631 13.643758 35.279455 5.064612 61.353522 2.501611 67.836633 16.022592 17.907235 25.691397 40.802689 25.691397 68.780777 0 98.474055-58.457903 120.142124-114.137942 126.483614 8.962829 7.915061 16.958777 23.556354 16.958777 47.474628 0 34.256635-.306946 61.904273-.306946 70.30714 0 6.860769 4.512109 14.838772 17.188987 12.336795 99.266398-33.973392 170.830903-129.976942 170.830903-243.195355 0-141.574157-111.943276-256.33467-250.023021-256.33467" fill="url(#a)" transform="translate(6 6)"/></g></svg>