<svg viewBox="0 0 18 14" xmlns="http://www.w3.org/2000/svg"><path d="m13.22 18.7987076c.1406.1405.3312.2193.53.2193s.3894-.0788.53-.2193l6.25-6.25c.1405-.14062.2193-.33125.2193-.53s-.0788-.38937-.2193-.53l-6.25-6.24999897c-.0687-.073687-.1515-.132789-.2435-.173781s-.1913-.063034-.292-.06492763c-.1007-.00165937-.2007.01686463-.2941.05458563s-.1782.093866-.2494.165084c-.0713.071219-.1274.156053-.1651.249441-.03774.093388-.05627.193418-.05449.29412.00177.100707.02379.200017.06479.292017s.1001.1748.1738.24346l4.97 4.96999997h-14.44c-.198912 0-.389678.07902-.53033.21967-.1406525.14065-.21967.33142-.21967.53033s.0790175.38968.21967.53033c.140652.14065.331418.21967.53033.21967h14.44l-4.97 4.97c-.1405.1406-.2193.3313-.2193.53 0 .1988.0788.3894.2193.53z" fill="currentColor" transform="translate(-3 -5)"/></svg>
