<svg height="23" viewBox="0 0 21 23" width="21" xmlns="http://www.w3.org/2000/svg"><path d="m7.25 1c.19891 0 .38968.0790176.53033.21967.14065.140652.21967.331418.21967.53033v2.25h9v-2.25c0-.198912.079-.389678.2197-.53033.1406-.1406524.3314-.21967.5303-.21967s.3897.0790176.5303.21967c.1407.140652.2197.331418.2197.53033v2.25h2.75c.966 0 1.75.784 1.75 1.75v16c0 .4641-.1844.9092-.5126 1.2374s-.7733.5126-1.2374.5126h-17.5c-.46413 0-.90925-.1844-1.23744-.5126-.328185-.3282-.51256-.7733-.51256-1.2374v-16c0-.966.784-1.75 1.75-1.75h2.75v-2.25c0-.198912.07902-.389678.21967-.53033.14065-.1406524.33142-.21967.53033-.21967zm-3.5 4.5c-.0663 0-.12989.02634-.17678.07322-.04688.04689-.07322.11048-.07322.17678v3.25h18v-3.25c0-.0663-.0263-.12989-.0732-.17678-.0469-.04688-.1105-.07322-.1768-.07322zm17.75 5h-18v11.25c0 .138.112.25.25.25h17.5c.0663 0 .1299-.0263.1768-.0732s.0732-.1105.0732-.1768z" fill="currentColor" transform="translate(-2 -1)"/></svg>
