<svg height="19" viewBox="0 0 22 19" width="22" xmlns="http://www.w3.org/2000/svg"><path d="m6.736 4.5c-2.079 0-4.236 1.88-4.236 4.514 0 3.107 2.324 5.96 4.861 8.12 1.4192 1.199 2.94792 2.262 4.566 3.175l.073.041.073-.04c.271-.153.661-.38 1.13-.674.94-.588 2.19-1.441 3.436-2.502 2.537-2.16 4.861-5.013 4.861-8.12 0-2.634-2.157-4.514-4.236-4.514-2.106 0-3.801 1.389-4.553 3.643-.05.14897-.1455.27846-.2731.3702s-.2808.1411-.4379.1411-.3103-.04936-.4379-.1411-.2231-.22123-.2731-.3702c-.752-2.254-2.448-3.643-4.553-3.643zm5.264 16.703.343.667c-.1061.0546-.2237.083-.343.083s-.2369-.0284-.343-.083zm-11-12.19c0-3.46 2.829-6.013 5.736-6.013 2.294 0 4.145 1.226 5.264 3.105 1.12-1.879 2.97-3.105 5.264-3.105 2.906 0 5.736 2.552 5.736 6.014 0 3.818-2.801 7.06-5.389 9.262-1.6182 1.3668-3.3716 2.565-5.233 3.576l-.025.013-.007.003-.002.001-.344-.666-.343.667-.003-.002-.007-.003-.025-.013c-.5506-.2973-1.09155-.6121-1.622-.944-1.26513-.7898-2.4719-1.6693-3.611-2.632-2.589-2.203-5.389-5.444-5.389-9.262z" fill="#fff" transform="translate(-1 -3)"/></svg>