<svg height="38" viewBox="0 0 44 38" width="44" xmlns="http://www.w3.org/2000/svg"><path d="m13.4719052 7.99997521c-4.15796565 0-8.47192999 3.75996889-8.47192999 9.02792539 0 6.2139486 4.64796158 11.9199015 9.72191969 16.2398658 2.8379765 2.3979802 5.8959512 4.5239626 9.1319245 6.3499475l.1459988.0819993.1459988-.0799993c.5419955-.3059975 1.3219891-.7599937 2.2599813-1.3479889 1.8799845-1.1759903 4.3799638-2.8819762 6.8719432-5.0039586 5.0739581-4.3199643 9.7219197-10.0259172 9.7219197-16.2398658 0-5.2679565-4.3139644-9.02792539-8.47193-9.02792539-4.2119652 0-7.6019372 2.77797699-9.1059248 7.28593979-.0999991.2979975-.2919976.5559954-.5459955.7399939-.2559978.1839985-.5619953.2819976-.8759927.2819976s-.6199949-.0979991-.8759928-.2819976c-.2539979-.1839985-.4459963-.4419964-.5459955-.7399939-1.5039875-4.5079628-4.8959595-7.28593979-9.1059247-7.28593979zm10.5279212 33.40572389.6859861 1.333989c-.2119982.1099991-.4479963.1659986-.6859861.1659986-.2380062 0-.4740043-.0559995-.6860025-.1659986zm-21.9998264-24.3797985c0-6.9199428 5.65795324-12.0259006 11.4719052-12.0259006 4.5879621 0 8.2899315 2.45197974 10.527913 6.2099487 2.2399815-3.75796896 5.9399509-6.2099487 10.527913-6.2099487 5.8119519 0 11.4719052 5.1039578 11.4719052 12.0279006 0 7.6359369-5.6019537 14.1198833-10.777911 18.5238469-3.2359732 2.7339774-6.7439442 5.1299576-10.4659135 7.1519409l-.0499996.0259998-.0139998.0059999-.004.002-.6879943-1.331989-.6859943 1.333989-.006-.004-.0139999-.0059999-.0499996-.0259998c-1.1019909-.5939951-2.1839819-1.2239899-3.2439732-1.8879844-2.5299791-1.5799869-4.9439591-3.3379724-7.2219403-5.2639565-5.17795718-4.4059636-10.7779109-10.88791-10.7779109-18.5238469z" fill="#230138" fill-rule="evenodd" transform="translate(-2 -5)"/></svg>