<svg viewBox="-1 -1 25 23" xmlns="http://www.w3.org/2000/svg"><path d="m1 9.013c0-3.46 2.829-6.013 5.736-6.013 2.294 0 4.145 1.226 5.264 3.105 1.12-1.879 2.97-3.105 5.264-3.105 2.906 0 5.736 2.552 5.736 6.014 0 3.818-2.801 7.06-5.389 9.262-1.6182 1.3668-3.3716 2.565-5.233 3.576l-.025.013-.007.003-.002.001-.344-.666-.343.667-.003-.002-.007-.003-.025-.013c-.5506-.2973-1.09155-.6121-1.622-.944-1.26513-.7898-2.4719-1.6693-3.611-2.632-2.589-2.203-5.389-5.444-5.389-9.262z" transform="translate(-1 -3)"/></svg>
