<svg height="18" viewBox="0 0 20 18" width="20" xmlns="http://www.w3.org/2000/svg" xmlns:xlink="http://www.w3.org/1999/xlink"><linearGradient id="a" x1="82.64%" x2="59.951%" y1="32.237%" y2="55.215%"><stop offset="0" stop-color="#31abec"/><stop offset="1" stop-color="#1582d5"/></linearGradient><linearGradient id="b" x1="2.217%" x2="94.283%" y1="49.552%" y2="50.477%"><stop offset=".042" stop-color="#076db4"/><stop offset=".85" stop-color="#0461af"/></linearGradient><linearGradient id="c" x1="50.134%" x2="35.196%" y1="49.475%" y2="64.143%"><stop offset="0" stop-color="#33acee"/><stop offset="1" stop-color="#1b8edf"/></linearGradient><linearGradient id="d" x1="2.65%" x2="97.05%" y1="2.65%" y2="97.05%"><stop offset="0" stop-color="#1784d8"/><stop offset="1" stop-color="#0864c5"/></linearGradient><g fill="none"><path d="m19.6343119 8.5585212-3.3215666-1.93489791v5.65495501h3.6849392v-3.08793517c0-.26045765-.1385206-.50091761-.3633726-.63212193z" fill="#103262"/><path d="m4.877 1.951h4.878v4.39h-4.878z" fill="#0084d7"/><path d="m9.755 1.951h4.877v4.39h-4.877z" fill="#33afec"/><path d="m14.632 1.951h4.878v4.39h-4.878z" fill="#54daff"/><path d="m9.755 6.341h4.877v4.389h-4.877z" fill="#027ad4"/><path d="m9.755 10.73h4.877v4.39h-4.877z" fill="#0553a4"/><path d="m14.632 6.341h4.878v4.389h-4.878z" fill="#25a2e5"/><path d="m14.632 10.73h4.878v4.39h-4.878z" fill="#0262b8"/><g fill="#000"><path d="m4.877 15.12h14.633v-6.224l-6.833 3.902-7.8-3.902z" opacity=".019"/><path d="m4.877 15.12h14.633v-6.108l-6.833 3.902-7.8-3.902z" opacity=".038"/><path d="m4.877 15.12h14.633v-5.992l-6.833 3.902-7.8-3.902z" opacity=".057"/><path d="m4.877 15.12h14.633v-5.876l-6.833 3.902-7.8-3.902z" opacity=".076"/><path d="m4.877 15.12h14.633v-5.76l-6.833 3.902-7.8-3.902z" opacity=".095"/><path d="m4.877 15.12h14.633v-5.644l-6.833 3.902-7.8-3.902z" opacity=".114"/><path d="m4.877 15.12h14.633v-5.527l-6.833 3.902-7.8-3.902z" opacity=".133"/><path d="m4.877 15.12h14.633v-5.411l-6.833 3.902-7.8-3.902z" opacity=".152"/><path d="m4.877 15.12h14.633v-5.295l-6.833 3.902-7.8-3.902z" opacity=".171"/><path d="m4.877 15.12h14.633v-5.179l-6.833 3.902-7.8-3.902z" opacity=".191"/><path d="m4.877 15.12h14.633v-5.063l-6.833 3.902-7.8-3.902z" opacity=".209"/><path d="m4.877 15.12h14.633v-4.947l-6.833 3.902-7.8-3.902z" opacity=".229"/><path d="m4.877 15.12h14.633v-4.831l-6.833 3.902-7.8-3.902z" opacity=".248"/><path d="m4.877 15.12h14.633v-4.715l-6.833 3.902-7.8-3.902z" opacity=".267"/><path d="m4.877 15.12h14.633v-4.599l-6.833 3.902-7.8-3.902z" opacity=".286"/><path d="m4.877 15.12h14.633v-4.482l-6.833 3.902-7.8-3.902z" opacity=".305"/><path d="m4.877 15.12h14.633v-4.366l-6.833 3.902-7.8-3.902z" opacity=".324"/><path d="m4.877 15.12h14.633v-4.25l-6.833 3.902-7.8-3.902z" opacity=".343"/><path d="m4.877 15.12h14.633v-4.134l-6.833 3.902-7.8-3.902z" opacity=".362"/><path d="m4.877 15.12h14.633v-4.018l-6.833 3.902-7.8-3.902z" opacity=".381"/><path d="m4.877 15.12h14.633v-3.902l-6.833 3.902-7.8-3.902z" opacity=".4"/></g><path d="m6.06807786 17.5589425h12.95606084c.5384742 0 .975009-.4336084.9754968-.9725704.0014632-2.2051105-.001951-7.39572897-.001951-7.39572897s-.0034143.10828014-.8540475.59115106c-.8506332.48287091-13.41551977 7.56546541-13.41551977 7.56546541s.11413312.2116829.33996063.2116829z" fill="url(#a)"/><path d="m19.5099361 1.95099361h-14.63245209v-.97549681c0-.53896198.43653482-.9754968.97549681-.9754968h12.68145848c.5389619 0 .9754968.43653482.9754968.9754968z" fill="url(#b)"/><path d="m4.87748401 9.26721963v7.31622607c0 .5389619.43653482.9754968.97549681.9754968h7.31622598 5.8549319c.2253397 0 .4306818-.0790153.5955407-.2072931z" fill="url(#c)"/><path d="m8.93506297 3.41423881h-4.05757896v11.70596159h4.05757896c.9915925 0 1.79540183-.8038093 1.79540183-1.7954018v-8.11515792c0-.9915925-.80380933-1.79540187-1.79540183-1.79540187z" fill="#000" opacity=".05"/><path d="m8.88336164 14.632452h-4.00587763v-11.05579297h4.00587763c.84087824 0 1.52226276.68138451 1.52226276 1.52226276v8.01126751c-.0004878.8408782-.68187227 1.5222627-1.52226276 1.5222627z" fill="#000" opacity=".07"/><path d="m8.83117256 14.1447036h-3.95368855v-10.40513661h3.95368855c.68967624 0 1.24863624.55895967 1.24863624 1.24863591v7.9078648c.0004874.6896763-.55896 1.2486359-1.24863624 1.2486359z" fill="#000" opacity=".09"/><path d="m8.77947123 13.6569552h-7.80397443c-.53896198 0-.9754968-.4365348-.9754968-.9754968v-7.80397439c0-.53896198.43653482-.9754968.9754968-.9754968h7.80397443c.53896198 0 .9754968.43653482.9754968.9754968v7.80397439c0 .538962-.43653482.9754968-.9754968.9754968z" fill="url(#d)"/><path d="m4.87748401 6.19001496c-1.51738527 0-2.43142578 1.15937795-2.43142578 2.58945627 0 1.43007827.91062627 2.58945627 2.43142578 2.58945627 1.52128727 0 2.43142579-1.159378 2.43142579-2.58896852 0-1.43056607-.91404051-2.58994402-2.43142579-2.58994402zm0 4.30486744c-.86087592 0-1.37545049-.76771603-1.37545049-1.71492342 0-.9472074.51701331-1.71492338 1.37545049-1.71492338.85843719 0 1.37593825.76820373 1.37593825 1.71492338 0 .94671964-.51555006 1.71492342-1.37593825 1.71492342z" fill="#fff"/></g></svg>