<svg height="20" viewBox="0 0 16 20" width="16" xmlns="http://www.w3.org/2000/svg" xmlns:xlink="http://www.w3.org/1999/xlink"><linearGradient id="a" x1="49.977%" x2="49.977%" y1="-5.7%" y2="93%"><stop offset="0" stop-color="#ffb900"/><stop offset=".17" stop-color="#ef8400"/><stop offset=".31" stop-color="#e25c01"/><stop offset=".43" stop-color="#db4401"/><stop offset=".5" stop-color="#d83b01"/></linearGradient><linearGradient id="b" x1="65.309%" x2="21.743%" y1="-2.307%" y2="92.489%"><stop offset="0" stop-color="#800600"/><stop offset=".6" stop-color="#c72127"/><stop offset=".73" stop-color="#c13959"/><stop offset=".85" stop-color="#bc4b81"/><stop offset=".94" stop-color="#b95799"/><stop offset="1" stop-color="#b85ba2"/></linearGradient><linearGradient id="c" x1="7.889%" x2="191.841%" y1="50.038%" y2="50.038%"><stop offset="0" stop-color="#f32b44"/><stop offset=".6" stop-color="#a4070a"/></linearGradient><linearGradient id="d"><stop offset="0" stop-opacity=".4"/><stop offset="1" stop-opacity="0"/></linearGradient><linearGradient id="e" x1="66.199%" x2="56.974%" xlink:href="#d" y1="-4.234%" y2="15.835%"/><linearGradient id="f" x1="132.89%" x2="50.53%" xlink:href="#d" y1="52.474%" y2="48.194%"/><g fill="none"><path d="m3.9444537 15.6191133c-.47868617.0051278-.89508561.3291198-1.01771205.791861-.12262644.4627413.07867895.9504251.49200577 1.1919363l3.75598957 2.1292758c.30936669.1758612.65918514.2681585 1.01504296.2678136.19146209-.000126.38189773-.0279675.56538223-.0826592l5.65051602-1.6101821c.8658299-.2487647 1.4629321-1.0399588 1.4647037-1.9408151v-.7472303z" fill="#fff"/><path d="m3.9444537 15.6191133c-.47868617.0051278-.89508561.3291198-1.01771205.791861-.12262644.4627413.07867895.9504251.49200577 1.1919363l3.75598957 2.1292758c.30936669.1758612.65918514.2681585 1.01504296.2678136.19146209-.000126.38189773-.0279675.56538223-.0826592l5.65051602-1.6101821c.8658299-.2487647 1.4629321-1.0399588 1.4647037-1.9408151v-.7472303z" fill="#fff"/><path d="m8.73201788.07936771 1.51760492 3.47164529v12.0681003l-1.49446062 4.2982275 5.65051602-1.6101821c.8658299-.2487647 1.4629321-1.0399588 1.4647039-1.9408151v-12.73597871c.0003921-.90337948-.5990291-1.69720756-1.4680102-1.94412136z" fill="url(#a)"/><path d="m1.56720326 15.4901665 1.65316443-.8927088c.46180483-.2538077.74832442-.7393696.74723032-1.266324v-6.49693615c.00062399-.60618151.37956344-1.14752359.94891638-1.35559483l5.33310841-1.92758972v-1.46470368c-.0012709-.93270465-.62052348-1.7516291-1.51760492-2.00694161-.18594701-.05339562-.37853481-.080113-.57199489-.07936771-.36388275.0008481-.72142206.0953569-1.03818726.27444111l-6.10348306 3.48156428c-.62960612.35875925-1.01835267 1.02770812-1.01835267 1.75235429v9.04611572c-.00094081.3745821.19564052.7219223.51726134.9139448.32162082.1920226.72064605.2002872 1.04994192.0217463z" fill="url(#b)"/><path d="m10.2496304 15.6191133h-6.3051767c-.47868617.0051278-.89508561.3291198-1.01771205.791861-.12262644.4627413.07867895.9504251.49200577 1.1919363l3.75598957 2.1292758c.30936669.1758612.65918514.2681585 1.01504296.2678136.19146209-.000126.38189773-.0279675.56538223-.0826592.88630521-.2518223 1.49695182-1.0624151 1.49446822-1.9837973z" fill="url(#c)"/><path d="m1.56720326 15.4901665 1.65316443-.8927088c.46180483-.2538077.74832442-.7393696.74723032-1.266324v-6.49693615c.00062399-.60618151.37956344-1.14752359.94891638-1.35559483l5.33310841-1.92758972v-1.46470368c-.0012709-.93270465-.62052348-1.7516291-1.51760492-2.00694161-.18594701-.05339562-.37853481-.080113-.57199489-.07936771-.36388275.0008481-.72142206.0953569-1.03818726.27444111l-6.10348306 3.48156428c-.62960612.35875925-1.01835267 1.02770812-1.01835267 1.75235429v9.04611572c-.00094081.3745821.19564052.7219223.51726134.9139448.32162082.1920226.72064605.2002872 1.04994192.0217463z" fill="url(#e)"/><path d="m10.2496304 15.6191133h-6.3051767c-.47868617.0051278-.89508561.3291198-1.01771205.791861-.12262644.4627413.07867895.9504251.49200577 1.1919363l3.75598957 2.1292758c.30936669.1758612.65918514.2681585 1.01504296.2678136.19146209-.000126.38189773-.0279675.56538223-.0826592.88630521-.2518223 1.49695182-1.0624151 1.49446822-1.9837973z" fill="url(#f)"/></g></svg>