<svg height="53" viewBox="0 0 40 53" width="40" xmlns="http://www.w3.org/2000/svg"><path d="m153.5 1719c3.589851 0 6.5 2.91015 6.5 6.5s-2.910149 6.5-6.5 6.5-6.5-2.91015-6.5-6.5 2.910149-6.5 6.5-6.5zm0 3c-1.932997 0-3.5 1.567-3.5 3.5s1.567003 3.5 3.5 3.5 3.5-1.567 3.5-3.5-1.567003-3.5-3.5-3.5zm-13-12c3.589851 0 6.5 2.91015 6.5 6.5s-2.910149 6.5-6.5 6.5-6.5-2.91015-6.5-6.5 2.910149-6.5 6.5-6.5zm0 3c-1.932997 0-3.5 1.567-3.5 3.5s1.567003 3.5 3.5 3.5 3.5-1.567 3.5-3.5-1.567003-3.5-3.5-3.5zm13-10c3.589851 0 6.5 2.91015 6.5 6.5s-2.910149 6.5-6.5 6.5-6.5-2.91015-6.5-6.5 2.910149-6.5 6.5-6.5zm-27-2c3.589851 0 6.5 2.91015 6.5 6.5s-2.910149 6.5-6.5 6.5-6.5-2.91015-6.5-6.5 2.910149-6.5 6.5-6.5zm27 5c-1.932997 0-3.5 1.567-3.5 3.5s1.567003 3.5 3.5 3.5 3.5-1.567 3.5-3.5-1.567003-3.5-3.5-3.5zm-27-2c-1.932997 0-3.5 1.567-3.5 3.5s1.567003 3.5 3.5 3.5 3.5-1.567 3.5-3.5-1.567003-3.5-3.5-3.5zm13-10c3.589851 0 6.5 2.91015 6.5 6.5s-2.910149 6.5-6.5 6.5-6.5-2.91015-6.5-6.5 2.910149-6.5 6.5-6.5zm0 3c-1.932997 0-3.5 1.567-3.5 3.5s1.567003 3.5 3.5 3.5 3.5-1.567 3.5-3.5-1.567003-3.5-3.5-3.5zm14-10c3.589851 0 6.5 2.91015 6.5 6.5s-2.910149 6.5-6.5 6.5-6.5-2.91015-6.5-6.5 2.910149-6.5 6.5-6.5zm-23.33777-6.94844.085845.11639 3.664925 5.49789 8.412396 1.86988c.8087.17971 1.318596.98098 1.138885 1.78968-.16914.76112-.888861 1.25757-1.647167 1.16352l-.14251-.02464-7.679604-1.70644-2.571975 7.7165c-.261972.78592-1.111452 1.21066-1.897367.94868-.739684-.24656-1.159435-1.01354-.987851-1.75814l.039168-.13922 2.767025-8.30466-3.592075-5.38895c-.432498-.64875-.292947-1.51187.299636-1.99428l.116389-.08585c.648746-.43249 1.511869-.29294 1.99428.29964zm23.33777 9.94844c-1.932997 0-3.5 1.567-3.5 3.5s1.567003 3.5 3.5 3.5 3.5-1.567 3.5-3.5-1.567003-3.5-3.5-3.5z" fill="#42485d" transform="translate(-120 -1679)"/></svg>