<svg width="40px" height="40px" viewBox="0 0 32 32" version="1.1" xmlns="http://www.w3.org/2000/svg" xmlns:xlink="http://www.w3.org/1999/xlink">
    <path d="M15.9811995,2.36847579e-15 C13.7751537,2.36847579e-15 11.6944881,0.436489918 9.73912912,1.30949191 C7.8088418,2.15681438 6.11673348,3.3250711 4.66274791,4.81430641 C3.20876666,6.30353728 2.06815917,8.03666827 1.24089299,10.0137525 C0.413626859,12.0165163 0,14.1476246 0,16.4071527 C0,18.2045024 0.263217119,19.9247958 0.789659059,21.5680861 C1.34116984,23.2113765 2.09948603,24.7134272 3.06462969,26.0742781 C4.02977378,27.4351291 5.18918007,28.6162256 6.54289182,29.6176061 C7.87153187,30.6446631 9.33802517,31.4277824 10.9424193,31.9669873 C11.3435189,32.0440166 11.6255377,31.9862455 11.7884843,31.7936723 C11.9514309,31.6010991 12.032902,31.3892719 12.032902,31.1581841 C12.032902,30.9784491 12.026633,30.6382413 12.0140993,30.1375512 C12.0015656,29.6368611 11.9953009,29.052731 11.9953009,28.385144 C9.76418784,28.872996 8.31022822,28.6290738 7.63337018,27.6533696 C6.95651647,26.677665 6.61809827,26.1898205 6.61809827,26.1898205 C6.24206602,25.2397932 5.84723974,24.6043102 5.43360644,24.2833538 C5.01997313,23.9624018 4.8131608,23.8019258 4.8131608,23.8019258 C4.08616931,23.2883973 3.92322533,22.9931204 4.32432408,22.9160951 C4.72542499,22.8390654 4.92596831,22.8005483 4.92596831,22.8005483 C5.72816755,22.851903 6.34233985,23.1471754 6.76850684,23.6863835 C7.19467383,24.225587 7.40775516,24.4951844 7.40775516,24.4951844 C8.10967625,25.7276555 8.94319889,26.3117838 9.90834471,26.2475917 C10.8734862,26.1833995 11.5816676,26.048603 12.032902,25.843189 C12.1081085,25.3039854 12.2397187,24.8546535 12.4277326,24.4951844 C12.6157466,24.1357153 12.8225589,23.8532804 13.0481783,23.6478664 C11.2933712,23.4424567 9.64512863,22.8262323 8.10340724,21.7991753 C6.56168586,20.7721183 5.79083599,18.6923602 5.79083599,15.5598346 C5.79083599,14.6611575 5.93497555,13.8459444 6.22326766,13.1141688 C6.51155544,12.3823887 6.90638172,11.7340681 7.40775516,11.1691894 C7.33254872,10.9381003 7.23227489,10.4374182 7.1069337,9.66712546 C6.98158817,8.89683271 7.14453476,7.94681873 7.59576912,6.81705692 C7.59576912,6.81705692 7.94672534,6.82989446 8.64864643,6.85556956 C9.35057184,6.88124466 10.4661089,7.42044382 11.9953009,8.47317591 C12.6220156,8.29344138 13.2737933,8.15864048 13.950647,8.06877321 C14.6275007,7.97890595 15.3043458,7.93397232 15.9811995,7.93397232 C16.6580532,7.93397232 17.3348939,7.97890595 18.011752,8.06877321 C18.6886057,8.15864048 19.3529127,8.29344138 20.0046991,8.47317591 C21.5338867,7.42044382 22.6494282,6.88124466 23.3513492,6.85556956 C24.0532747,6.82989446 24.4042309,6.81705692 24.4042309,6.81705692 C24.8303979,7.94681873 24.9808064,8.89683271 24.8554652,9.66712546 C24.7301197,10.4374182 24.6298459,10.9381003 24.5546394,11.1691894 C25.0560129,11.7340681 25.4508392,12.3823887 25.7391313,13.1141688 C26.0274191,13.8459444 26.171563,14.6611575 26.171563,15.5598346 C26.171563,18.6923602 25.4007131,20.7721183 23.8589874,21.7991753 C22.317266,22.8262323 20.6564897,23.4424567 18.8766153,23.6478664 C19.1774411,23.9046306 19.4343882,24.2833538 19.6474738,24.7840447 C19.8605552,25.2847357 19.967098,25.9073767 19.967098,26.6519944 C19.967098,27.7560802 19.967098,28.7189317 19.967098,29.5405773 C19.967098,30.3622229 19.967098,30.9014199 19.967098,31.1581841 C19.967098,31.3892719 20.0485691,31.6010991 20.2115157,31.7936723 C20.3744623,31.9862455 20.6564811,32.0440166 21.0575807,31.9669873 C22.6369031,31.4021059 24.1034008,30.6189867 25.4571082,29.6176061 C26.7857482,28.6162256 27.9326217,27.4351291 28.8977675,26.0742781 C29.862909,24.7134272 30.6212252,23.2113765 31.1727377,21.5680861 C31.7242459,19.9247958 32,18.2045024 32,16.4071527 C32,14.1476246 31.5738373,12.0165163 30.7215034,10.0137525 C29.8942367,8.03666827 28.753628,6.30353728 27.2996467,4.81430641 C25.8456655,3.3250711 24.1535528,2.15681438 22.2232655,1.30949191 C20.2679108,0.436489918 18.1872409,2.36847579e-15 15.9811995,2.36847579e-15 Z" id="GitHub"></path>
</svg>
