<svg height="20" viewBox="0 0 16 20" width="16" xmlns="http://www.w3.org/2000/svg"><path d="m13.7489839 0c-.9824658.04706423-2.1956383.67226547-2.8886591 1.55118879-.6353671.75773411-1.17868315 1.98831784-1.04102039 3.14374469 1.10953939.09648167 2.21861889-.57859588 2.91163969-1.43398827.6824313-.87892568 1.1333471-2.05727752 1.0180398-3.26094521zm-.1286913 5.29242801c-1.6178329 0-2.7744364.88245432-3.5298173.88245432-.76714693 0-1.91198433-.87096359-3.23566581-.87096359-1.61783292 0-3.20229801 1.01552019-4.03768812 2.49569024-1.71666781 2.95916352-.44563944 7.33985142 1.21337471 9.74836342.81303458 1.1930783 1.79478337 2.4520276 3.11846485 2.4520276 1.21308054-.0458876 1.62371595-.7353786 3.08859007-.7353786 1.4754637 0 1.9119844.7353786 3.2356659.7353786s2.1250606-1.2129888 2.9369186-2.406067c.9271653-1.3530966 1.3059218-2.6721635 1.3282773-2.7415832-.0223555-.0223555-2.5617838-.9974675-2.5853159-3.9342755-.0223555-2.45439962 2.0017559-3.62473642 2.0935311-3.69297956-1.1448374-1.6966655-3.0380325-1.93266673-3.4792597-1.93266673z" transform="translate(-2)"/></svg>